<svg width="50" height="24" viewBox="0 0 50 24" fill="none" xmlns="http://www.w3.org/2000/svg">
<g id="Group 28">
<g id="Group 14">
<path id="Rectangle 53" d="M43.2458 4.64941H46.1221V16.474C46.1221 17.0035 45.6928 17.4327 45.1633 17.4327H44.2046C43.6751 17.4327 43.2458 17.0035 43.2458 16.474V4.64941Z" fill="#947C6A"/>
<path id="Rectangle 48" d="M8.20793 4.97655C8.44253 4.76592 8.74668 4.64941 9.06195 4.64941H46.212C46.3317 4.64941 46.4221 4.75776 46.4007 4.87546L45.1635 11.6802H0.741455L8.20793 4.97655Z" fill="#A68975"/>
<path id="Rectangle 49" d="M0.741333 11.6802H45.4829V13.2781C45.4829 13.9841 44.9106 14.5564 44.2046 14.5564H2.01966C1.31366 14.5564 0.741333 13.9841 0.741333 13.2781V11.6802Z" fill="#976F53"/>
<path id="Rectangle 54" d="M45.2971 11.3613L46.1223 4.64963L46.2684 6.0867C46.2774 6.17496 46.2772 6.26392 46.2677 6.35214L45.3947 14.5043L45.2971 11.3613Z" fill="#976F53"/>
<path id="Rectangle 50" d="M6.08435 14.5566H9.59976V22.2266C9.59976 22.9326 9.02743 23.505 8.32143 23.505H7.36268C6.65668 23.505 6.08435 22.9326 6.08435 22.2266V14.5566Z" fill="#9C816E"/>
<path id="Rectangle 52" d="M8.57111 14.5566H11.4474V16.4741C11.4474 17.0036 11.0181 17.4329 10.4886 17.4329H9.52985C9.00035 17.4329 8.57111 17.0036 8.57111 16.4741V14.5566Z" fill="#947C6A"/>
<path id="Rectangle 51" d="M40.2797 14.5566H43.7951V22.2266C43.7951 22.9326 43.2227 23.505 42.5167 23.505H41.558C40.852 23.505 40.2797 22.9326 40.2797 22.2266V14.5566Z" fill="#9C816E"/>
</g>
<g id="Group 15">
<g id="Group 11">
<path id="Rectangle 58" d="M33.755 2.43701H43.6155V4.59911C43.6155 7.32201 41.4081 9.52935 38.6852 9.52935C35.9623 9.52935 33.755 7.32201 33.755 4.59911V2.43701Z" fill="#FEFEFE"/>
<path id="Subtract" fill-rule="evenodd" clip-rule="evenodd" d="M43.9121 5.8467C44.7176 5.8467 45.3706 5.1937 45.3706 4.38819C45.3706 3.58268 44.7176 2.92969 43.9121 2.92969C43.1065 2.92969 42.4536 3.58268 42.4536 4.38819C42.4536 5.1937 43.1065 5.8467 43.9121 5.8467ZM43.9121 5.07651C44.2923 5.07651 44.6005 4.76833 44.6005 4.38817C44.6005 4.00801 44.2923 3.69983 43.9121 3.69983C43.532 3.69983 43.2238 4.00801 43.2238 4.38817C43.2238 4.76833 43.532 5.07651 43.9121 5.07651Z" fill="#FEFEFE"/>
<ellipse id="Ellipse 283" cx="38.8023" cy="2.67326" rx="4.8134" ry="1.88761" fill="#F4F4F4"/>
<ellipse id="Ellipse 282" cx="38.6854" cy="2.46391" rx="4.93024" ry="1.9688" fill="#FEFEFE"/>
<g id="Group 10">
<ellipse id="Ellipse 283_2" cx="38.6853" cy="2.46376" rx="4.10203" ry="1.5414" fill="#9E806B"/>
<ellipse id="Ellipse 284" cx="38.5183" cy="2.37853" rx="3.9351" ry="1.48302" fill="#BA9A83"/>
</g>
</g>
</g>
</g>
</svg>
