<svg width="93" height="143" viewBox="0 0 93 143" fill="none" xmlns="http://www.w3.org/2000/svg">
<ellipse cx="87.4999" cy="105.85" rx="2.2" ry="3.85" fill="#FFFEFB"/>
<ellipse cx="85.85" cy="107.5" rx="2.2" ry="3.85" transform="rotate(-90 85.85 107.5)" fill="#FFFEFB"/>
<ellipse cx="87.5001" cy="109.15" rx="2.2" ry="3.85" transform="rotate(180 87.5001 109.15)" fill="#FFFEFB"/>
<ellipse cx="89.15" cy="107.5" rx="2.2" ry="3.85" transform="rotate(90 89.15 107.5)" fill="#FFFEFB"/>
<circle cx="87.4999" cy="107.5" r="1.6" fill="#FFEE38" stroke="#FFEE38"/>
<ellipse cx="71" cy="84.6" rx="3.2" ry="5.6" fill="#FFFEFB"/>
<ellipse cx="68.6" cy="87" rx="3.2" ry="5.6" transform="rotate(-90 68.6 87)" fill="#FFFEFB"/>
<ellipse cx="71" cy="89.4" rx="3.2" ry="5.6" transform="rotate(180 71 89.4)" fill="#FFFEFB"/>
<ellipse cx="73.4" cy="87" rx="3.2" ry="5.6" transform="rotate(90 73.4 87)" fill="#FFFEFB"/>
<circle cx="71" cy="87" r="2.1" fill="#FFEE38" stroke="#FFEE38"/>
<ellipse cx="47.4998" cy="114.55" rx="2.6" ry="4.55" fill="#FFFEFB"/>
<ellipse cx="45.55" cy="116.5" rx="2.6" ry="4.55" transform="rotate(-90 45.55 116.5)" fill="#FFFEFB"/>
<ellipse cx="47.5002" cy="118.45" rx="2.6" ry="4.55" transform="rotate(180 47.5002 118.45)" fill="#FFFEFB"/>
<ellipse cx="49.45" cy="116.5" rx="2.6" ry="4.55" transform="rotate(90 49.45 116.5)" fill="#FFFEFB"/>
<circle cx="47.4999" cy="116.5" r="1.8" fill="#FFEE38" stroke="#FFEE38"/>
<ellipse cx="68.4191" cy="130.48" rx="3.2" ry="5.6" transform="rotate(15 68.4191 130.48)" fill="#FFFEFB"/>
<ellipse cx="65.4797" cy="132.177" rx="3.2" ry="5.6" transform="rotate(-75 65.4797 132.177)" fill="#FFFEFB"/>
<ellipse cx="67.1768" cy="135.116" rx="3.2" ry="5.6" transform="rotate(-165 67.1768 135.116)" fill="#FFFEFB"/>
<ellipse cx="70.1162" cy="133.419" rx="3.2" ry="5.6" transform="rotate(105 70.1162 133.419)" fill="#FFFEFB"/>
<circle cx="67.798" cy="132.798" r="2.1" transform="rotate(15 67.798 132.798)" fill="#FFEE38" stroke="#FFEE38"/>
<ellipse cx="38.9998" cy="85.9" rx="2.8" ry="4.9" fill="#FFFEFB"/>
<ellipse cx="36.9" cy="88.0002" rx="2.8" ry="4.9" transform="rotate(-90 36.9 88.0002)" fill="#FFFEFB"/>
<ellipse cx="39.0002" cy="90.1" rx="2.8" ry="4.9" transform="rotate(180 39.0002 90.1)" fill="#FFFEFB"/>
<ellipse cx="41.1" cy="87.9998" rx="2.8" ry="4.9" transform="rotate(90 41.1 87.9998)" fill="#FFFEFB"/>
<circle cx="38.9999" cy="87.9999" r="1.9" fill="#FFEE38" stroke="#FFEE38"/>
<ellipse cx="36.7255" cy="55.5458" rx="2.37271" ry="4.15225" transform="rotate(15 36.7255 55.5458)" fill="#FFFEFB"/>
<ellipse cx="34.5461" cy="56.8042" rx="2.37271" ry="4.15225" transform="rotate(-75 34.5461 56.8042)" fill="#FFFEFB"/>
<ellipse cx="35.8045" cy="58.9837" rx="2.37271" ry="4.15225" transform="rotate(-165 35.8045 58.9837)" fill="#FFFEFB"/>
<ellipse cx="37.984" cy="57.7252" rx="2.37271" ry="4.15225" transform="rotate(105 37.984 57.7252)" fill="#FFFEFB"/>
<circle cx="36.2651" cy="57.2648" r="1.68636" transform="rotate(15 36.2651 57.2648)" fill="#FFEE38" stroke="#FFEE38"/>
<ellipse cx="35.4593" cy="5.51471" rx="1.9839" ry="3.47183" transform="rotate(15 35.4593 5.51471)" fill="#FFFEFB"/>
<ellipse cx="33.6367" cy="6.56699" rx="1.9839" ry="3.47183" transform="rotate(-75 33.6367 6.56699)" fill="#FFFEFB"/>
<ellipse cx="34.689" cy="8.3891" rx="1.9839" ry="3.47183" transform="rotate(-165 34.689 8.3891)" fill="#FFFEFB"/>
<ellipse cx="36.5112" cy="7.33682" rx="1.9839" ry="3.47183" transform="rotate(105 36.5112 7.33682)" fill="#FFFEFB"/>
<circle cx="35.074" cy="6.95219" r="1.49195" transform="rotate(15 35.074 6.95219)" fill="#FFEE38" stroke="#FFEE38"/>
<ellipse cx="11.3301" cy="72.6954" rx="3.2" ry="5.6" transform="rotate(-16.2084 11.3301 72.6954)" fill="#FFFEFB"/>
<ellipse cx="9.6954" cy="75.6699" rx="3.2" ry="5.6" transform="rotate(-106.208 9.6954 75.6699)" fill="#FFFEFB"/>
<ellipse cx="12.6699" cy="77.3046" rx="3.2" ry="5.6" transform="rotate(163.792 12.6699 77.3046)" fill="#FFFEFB"/>
<ellipse cx="14.3046" cy="74.3301" rx="3.2" ry="5.6" transform="rotate(73.7916 14.3046 74.3301)" fill="#FFFEFB"/>
<circle cx="12" cy="75" r="2.1" transform="rotate(-16.2084 12 75)" fill="#FFEE38" stroke="#FFEE38"/>
<ellipse cx="7.37472" cy="35.7231" rx="2.37271" ry="4.15225" transform="rotate(-30 7.37472 35.7231)" fill="#FFFEFB"/>
<ellipse cx="6.72346" cy="38.1541" rx="2.37271" ry="4.15225" transform="rotate(-120 6.72346 38.1541)" fill="#FFFEFB"/>
<ellipse cx="9.15439" cy="38.8053" rx="2.37271" ry="4.15225" transform="rotate(150 9.15439 38.8053)" fill="#FFFEFB"/>
<ellipse cx="9.80564" cy="36.3744" rx="2.37271" ry="4.15225" transform="rotate(60 9.80564 36.3744)" fill="#FFFEFB"/>
<circle cx="8.26463" cy="37.2643" r="1.68636" transform="rotate(-30 8.26463 37.2643)" fill="#FFEE38" stroke="#FFEE38"/>
</svg>
