<svg width="375" height="239" viewBox="0 0 375 239" fill="none" xmlns="http://www.w3.org/2000/svg">
<circle cx="-14.5" cy="122.5" r="56.5" fill="#E6ECDC"/>
<circle cx="48.5" cy="166.5" r="62.5" fill="#DDE7CC"/>
<rect x="-3" y="14" width="379" height="224" fill="#CAE289"/>
<path d="M18.5 0L8 14L31.5 15L33 7L23 14L26.5 3.5L15 14L18.5 0Z" fill="#CAE289"/>
<path d="M-3.5 0L-14 14L9.5 15L11 7L1 14L4.5 3.5L-7 14L-3.5 0Z" fill="#CAE289"/>
<path d="M38 5.5L28 14L51.5 15L53 7L43 14L44 5.5L35 14L38 5.5Z" fill="#CAE289"/>
<path d="M56.5 4.5L56 14L64.5 7V14.4009L64.8563 14.4101L74.5 7.65957V14.6596L64.8563 14.4101L64.5 14.6596V14.4009L49 14L54.25 7L56.5 4.5Z" fill="#CAE289"/>
<path d="M82.5 4L75 14L98.5 15L94.5 8.5L90 14L91 7L82 14L82.5 4Z" fill="#CAE289"/>
<path d="M102.5 5L94 14L117.5 15L119 7L109 14L111.5 5.5L101 14L102.5 5Z" fill="#CAE289"/>
<path d="M275.5 0L265 14L288.5 15L290 7L280 14L283.5 3.5L272 14L275.5 0Z" fill="#CAE289"/>
<path d="M253.5 0L243 14L266.5 15L268 7L258 14L261.5 3.5L250 14L253.5 0Z" fill="#CAE289"/>
<path d="M230.5 0L220 14L243.5 15L245 7L235 14L238.5 3.5L227 14L230.5 0Z" fill="#CAE289"/>
<path d="M207.5 0L197 14L220.5 15L222 7L212 14L215.5 3.5L204 14L207.5 0Z" fill="#CAE289"/>
<path d="M157.5 0L147 14L170.5 15L172 7L162 14L165.5 3.5L154 14L157.5 0Z" fill="#CAE289"/>
<path d="M132.5 3L122 17L145.5 18L147 10L137 17L140.5 6.5L129 17L132.5 3Z" fill="#CAE289"/>
<path d="M295 5.5L285 14L308.5 15L310 7L300 14L301 5.5L292 14L295 5.5Z" fill="#CAE289"/>
<path d="M313.5 4.5L313 14L321.5 7V14.4009L321.856 14.4101L331.5 7.65957V14.6596L321.856 14.4101L321.5 14.6596V14.4009L306 14L311.25 7L313.5 4.5Z" fill="#CAE289"/>
<path d="M339.5 4L332 14L355.5 15L351.5 8.5L347 14L348 7L339 14L339.5 4Z" fill="#CAE289"/>
<path d="M359.84 5L351 14L375.44 15L377 7L366.6 14L369.2 5.5L358.28 14L359.84 5Z" fill="#CAE289"/>
<rect x="-1" y="46" width="382" height="234" fill="#B4D35F"/>
<path d="M37.5806 42L27 56L50.6803 57L52.1918 49L42.1151 56L45.6419 45.5L34.0537 56L37.5806 42Z" fill="#B4D35F"/>
<path d="M33.5806 31L23 45L46.6803 46L48.1918 38L38.1151 45L41.6419 34.5L30.0537 45L33.5806 31Z" fill="#B4D35F"/>
<path d="M18.5806 39L8 53L31.6803 54L33.1918 46L23.1151 53L26.6419 42.5L15.0537 53L18.5806 39Z" fill="#B4D35F"/>
<path d="M15.5806 35L5 49L28.6803 50L30.1918 42L20.1151 49L23.6419 38.5L12.0537 49L15.5806 35Z" fill="#B4D35F"/>
<path d="M7.58056 44L-3 58L20.6803 59L22.1918 51L12.1151 58L15.6419 47.5L4.05371 58L7.58056 44Z" fill="#B4D35F"/>
<path d="M40.399 39.5L30.3223 48L54.0026 49L55.5141 41L45.4374 48L46.445 39.5L37.376 48L40.399 39.5Z" fill="#B4D35F"/>
<path d="M58.0409 38.5L57.5371 48L66.1023 41V48.4009L66.4614 48.4101L76.1791 41.6596V48.6596L66.4614 48.4101L66.1023 48.6596V48.4009L50.4834 48L55.7737 41L58.0409 38.5Z" fill="#B4D35F"/>
<path d="M85.2402 38L77.6826 48L101.363 49L97.3322 42.5L92.7977 48L93.8054 41L84.7363 48L85.2402 38Z" fill="#B4D35F"/>
<path d="M105.394 39L96.8286 48L120.509 49L122.02 41L111.944 48L114.463 39.5L103.882 48L105.394 39Z" fill="#B4D35F"/>
<path d="M279.721 22L269.141 36L292.821 37L294.332 29L284.256 36L287.783 25.5L276.194 36L279.721 22Z" fill="#B4D35F"/>
<path d="M168.877 42L158.297 56L181.977 57L183.488 49L173.412 56L176.939 45.5L165.35 56L168.877 42Z" fill="#B4D35F"/>
<path d="M209.184 42L198.604 56L222.284 57L223.795 49L213.719 56L217.246 45.5L205.657 56L209.184 42Z" fill="#B4D35F"/>
<path d="M128.57 42L117.99 56L141.67 57L143.182 49L133.105 56L136.632 45.5L125.043 56L128.57 42Z" fill="#B4D35F"/>
<path d="M257.552 42L246.972 56L270.652 57L272.164 49L262.087 56L265.614 45.5L254.026 56L257.552 42Z" fill="#B4D35F"/>
<path d="M299.371 27.5L289.294 36L312.974 37L314.486 29L304.409 36L305.417 27.5L296.348 36L299.371 27.5Z" fill="#B4D35F"/>
<path d="M318.013 26.5L317.509 36L326.074 29V36.4009L326.433 36.4101L336.151 29.6596V36.6596L326.433 36.4101L326.074 36.6596V36.4009L310.455 36L315.745 29L318.013 26.5Z" fill="#B4D35F"/>
<path d="M344.212 26L336.655 36L360.335 37L356.304 30.5L351.77 36L352.778 29L343.708 36L344.212 26Z" fill="#B4D35F"/>
<path d="M364.708 31L355.8 40L380.428 41L382 33L371.52 40L374.14 31.5L363.136 40L364.708 31Z" fill="#B4D35F"/>
<ellipse cx="23" cy="48" rx="23" ry="12" fill="#B4D35F"/>
</svg>
