<svg width="376" height="258" viewBox="0 0 376 258" fill="none" xmlns="http://www.w3.org/2000/svg">
<rect y="13.7725" width="375" height="205.665" fill="#C6DD6C"/>
<path d="M17.5 0.918457L7 13.7725L30.5 14.6907L32 7.3455L22 13.7725L25.5 4.13198L14 13.7725L17.5 0.918457Z" fill="#C6DD6C"/>
<path d="M0 13.7725L8.5 14.6906L5 3.67285L0 13.7725Z" fill="#C6DD6C"/>
<path d="M37 5.96826L27 13.7725L50.5 14.6907L52 7.34548L42 13.7725L43 5.96826L34 13.7725L37 5.96826Z" fill="#C6DD6C"/>
<path d="M55.5 5.05029L55 13.7727L63.5 7.34566V14.1408L63.8563 14.1493L73.5 7.95125V14.3783L63.8563 14.1493L63.5 14.3783V14.1408L48 13.7727L53.25 7.34566L55.5 5.05029Z" fill="#C6DD6C"/>
<path d="M81.5 4.59131L74 13.7728L97.5 14.6909L93.5 8.72298L89 13.7728L90 7.34575L81 13.7728L81.5 4.59131Z" fill="#C6DD6C"/>
<path d="M101.5 5.50928L93 13.7726L116.5 14.6908L118 7.34557L108 13.7726L110.5 5.96835L100 13.7726L101.5 5.50928Z" fill="#C6DD6C"/>
<path d="M274.5 0.918457L264 13.7725L287.5 14.6907L289 7.3455L279 13.7725L282.5 4.13198L271 13.7725L274.5 0.918457Z" fill="#C6DD6C"/>
<path d="M252.5 0.918457L242 13.7725L265.5 14.6907L267 7.3455L257 13.7725L260.5 4.13198L249 13.7725L252.5 0.918457Z" fill="#C6DD6C"/>
<path d="M229.5 0.918457L219 13.7725L242.5 14.6907L244 7.3455L234 13.7725L237.5 4.13198L226 13.7725L229.5 0.918457Z" fill="#C6DD6C"/>
<path d="M206.5 0.918457L196 13.7725L219.5 14.6907L221 7.3455L211 13.7725L214.5 4.13198L203 13.7725L206.5 0.918457Z" fill="#C6DD6C"/>
<path d="M151 4.59091L143 14.2315L169.5 14.6905V6.42721L161 13.7724L157 4.13184L153 13.7724L151 4.59091Z" fill="#C6DD6C"/>
<path d="M175 5.96826L167 15.6088L189.5 15.1497L191.5 7.80456L185 13.7725L182 7.80456L176.5 13.7725L175 5.96826Z" fill="#C6DD6C"/>
<path d="M195 6.42725L187 16.0678L209.5 15.6087L211.5 8.26354L202 15.1497V8.26354L196.5 14.2315L195 6.42725Z" fill="#C6DD6C"/>
<path d="M131.5 3.67285L121 16.5269L144.5 17.4451L145.5 5.96822L136 16.5269L139.5 6.88637L128 16.5269L131.5 3.67285Z" fill="#C6DD6C"/>
<path d="M131.392 1.79728L139.906 15.8351L116.486 13.8323L116.08 6.36838L125.043 13.976L122.993 3.98988L132.97 14.9675L131.392 1.79728Z" fill="#C6DD6C"/>
<path d="M294 5.96826L284 13.7725L307.5 14.6907L309 7.34548L299 13.7725L300 5.96826L291 13.7725L294 5.96826Z" fill="#C6DD6C"/>
<path d="M312.5 5.05029L312 13.7727L320.5 7.34566V13.7727L330.5 7.95125L331 13.7727H320.5H312H305L310.25 7.34566L312.5 5.05029Z" fill="#C6DD6C"/>
<path d="M338.5 4.59131L331 13.7728L354.5 14.6909L350.5 8.72298L346 13.7728L347 7.34575L338 13.7728L338.5 4.59131Z" fill="#C6DD6C"/>
<path d="M358.84 5.50928L350 13.7726L374.44 14.6908L376 7.34557L365.6 13.7726L368.2 5.96835L357.28 13.7726L358.84 5.50928Z" fill="#C6DD6C"/>
<rect y="43.1528" width="375" height="214.847" fill="#ABC956"/>
<path d="M39.5265 39.4805L29.2208 52.3346L52.286 53.2527L53.7583 45.9075L43.9433 52.3346L47.3785 42.694L36.0913 52.3346L39.5265 39.4805Z" fill="#ABC956"/>
<path d="M33.76 29.3809L22 42.2349L48.32 43.1531L50 35.8079L38.8 42.2349L42.72 32.5944L29.84 42.2349L33.76 29.3809Z" fill="#ABC956"/>
<path d="M21.0201 36.7261L10.7143 49.5802L33.7796 50.4983L35.2518 43.1531L25.4368 49.5802L28.8721 39.9396L17.5848 49.5802L21.0201 36.7261Z" fill="#ABC956"/>
<path d="M18.098 33.0532L7.79224 45.9073L30.8575 46.8255L32.3297 39.4803L22.5147 45.9073L25.95 36.2667L14.6627 45.9073L18.098 33.0532Z" fill="#ABC956"/>
<path d="M10.3057 41.3169L0 54.171L23.0652 55.0891L24.5375 47.7439L14.7225 54.171L18.1577 44.5304L6.8705 54.171L10.3057 41.3169Z" fill="#ABC956"/>
<path d="M43 38.1032L32.4568 44.9893L55.522 45.9075L53 37.1851L47.1793 44.9893L47.5 38.5623L39.5 42.694L43 38.1032Z" fill="#ABC956"/>
<path d="M12 34.4307L3 43.6122L26.0652 44.5303L23.5432 35.8079L17.7225 43.6122L18.0432 37.1851L11.5 41.3168L12 34.4307Z" fill="#ABC956"/>
<path d="M59.3496 33.5382L59.1674 42.9914L67.2703 35.8069L67.51 43.1609L67.8595 43.1604L77.0912 36.193L77.3179 43.1485L67.8595 43.1604L67.5184 43.4179L67.51 43.1609L52.3078 43.18L57.2257 36.083L59.3496 33.5382Z" fill="#ABC956"/>
<path d="M81.3496 33.5382L81.1674 42.9914L89.2703 35.8069L89.51 43.1609L89.8595 43.1604L99.0912 36.193L99.3179 43.1485L89.8595 43.1604L89.5184 43.4179L89.51 43.1609L74.3078 43.18L79.2257 36.083L81.3496 33.5382Z" fill="#ABC956"/>
<path d="M104.35 33.5382L104.167 42.9914L112.27 35.8069L112.51 43.1609L112.86 43.1604L122.091 36.193L122.318 43.1485L112.86 43.1604L112.518 43.4179L112.51 43.1609L97.3078 43.18L102.226 36.083L104.35 33.5382Z" fill="#ABC956"/>
<path d="M85.9483 35.8076L78.587 44.9891L101.652 45.9073L97.7263 39.9393L93.3095 44.9891L94.291 38.5621L85.4575 44.9891L85.9483 35.8076Z" fill="#ABC956"/>
<path d="M128.49 37.4536L120.303 43.6063L143.809 43.2115L145.038 38.0097L135.285 42.9446L137.497 37.3776L127.295 43.2975L128.49 37.4536Z" fill="#ABC956"/>
<path d="M156.817 37.4536L165.005 43.6063L141.498 43.2115L140.269 38.0097L150.022 42.9446L147.811 37.3776L158.013 43.2975L156.817 37.4536Z" fill="#ABC956"/>
<path d="M172.49 37.4536L164.303 43.6063L187.809 43.2115L189.038 38.0097L179.285 42.9446L181.497 37.3776L171.295 43.2975L172.49 37.4536Z" fill="#ABC956"/>
<path d="M195.49 37.4536L187.303 43.6063L210.809 43.2115L212.038 38.0097L202.285 42.9446L204.497 37.3776L194.295 43.2975L195.49 37.4536Z" fill="#ABC956"/>
<path d="M195.5 33.9715L207.005 43.6063L183.498 43.2116L182.269 38.0097L192.022 42.9446L192.022 38.0097L200.013 43.2975L195.5 33.9715Z" fill="#ABC956"/>
<path d="M269.5 22.9536L264.5 35.8077L288.137 34.8895L286.5 24.7899L280.5 32.5942L280 24.3308L271.943 33.9714L269.5 22.9536Z" fill="#ABC956"/>
<path d="M248 29.3807L243 42.2348L266.637 41.3167L263.5 27.5444L259 36.2668L258.5 30.758L250.5 38.5622L248 29.3807Z" fill="#ABC956"/>
<path d="M252 31.2169L255.308 48.3935L232.166 43.8794L237.754 30.7779L240.612 40.0659L242.103 34.71L248.578 43.627L252 31.2169Z" fill="#ABC956"/>
<path d="M167.413 39.4805L157.107 52.3346L180.173 53.2527L181.645 45.9075L171.83 52.3346L175.265 42.694L163.978 52.3346L167.413 39.4805Z" fill="#ABC956"/>
<path d="M219.5 33.0532L209 44.071L232.065 44.9892L233.537 37.644L224 43.1529V36.7258L216 43.1529L219.5 33.0532Z" fill="#ABC956"/>
<path d="M253.785 39.4805L243.479 52.3346L266.544 53.2527L268.017 45.9075L258.202 52.3346L261.637 42.694L250.35 52.3346L253.785 39.4805Z" fill="#ABC956"/>
<path d="M294.747 23.6242L285.999 32.4337L309.022 30.856L309.544 23.4029L300.62 30.8447L300.595 22.9886L292.822 31.6922L294.747 23.6242Z" fill="#ABC956"/>
<path d="M312.675 25.249L312.184 33.9714L320.527 27.5444V34.3395L320.876 34.348L330.342 28.15V34.577L320.876 34.348L320.527 34.577V34.3395L305.313 33.9714L310.466 27.5444L312.675 25.249Z" fill="#ABC956"/>
<path d="M338.194 24.79L330.833 33.9715L353.898 34.8897L352.5 26.1673L346.5 31.6762L346.537 27.5445L337.703 33.9715L338.194 24.79Z" fill="#ABC956"/>
<path d="M326.361 23.8721L319 33.0536L342.065 33.9717L340.5 28.0037L333.722 33.0536L334.704 26.6265L325.87 33.0536L326.361 23.8721Z" fill="#ABC956"/>
<path d="M316.5 24.7901L309 34.8898L332.065 35.8079L329.5 24.3311L323.722 34.8898L321.5 28.4627L317 33.0535L316.5 24.7901Z" fill="#ABC956"/>
<path d="M357.676 27.5444L349 35.8078L375 38.5622V28.9217L364 34.8896L362 28.0035L356 33.5124L357.676 27.5444Z" fill="#ABC956"/>
<path d="M374.5 72.9927C374.5 95.5578 372.99 112.014 315 112.014C257.01 112.014 210 93.7215 210 71.1564C210 48.5914 257.01 30.2988 315 30.2988C372.99 30.2988 374.5 37.644 374.5 72.9927Z" fill="#ABC956"/>
<path d="M48 51.4162C48 57.5012 36.8071 62.434 23 62.434C9.19288 62.434 0.5 57.5012 0.5 51.4162C0.5 45.3313 9.19288 40.3984 23 40.3984C36.8071 40.3984 48 45.3313 48 51.4162Z" fill="#ABC956"/>
<ellipse cx="114.5" cy="110.958" rx="2.2" ry="3.53487" fill="#FFFEFB"/>
<ellipse cx="112.85" cy="112.473" rx="2.01993" ry="3.85" transform="rotate(-90 112.85 112.473)" fill="#FFFEFB"/>
<ellipse cx="114.5" cy="113.988" rx="2.2" ry="3.53487" transform="rotate(180 114.5 113.988)" fill="#FFFEFB"/>
<ellipse cx="116.15" cy="112.473" rx="2.01993" ry="3.85" transform="rotate(90 116.15 112.473)" fill="#FFFEFB"/>
<path d="M114.5 110.963C115.342 110.963 116.1 111.6 116.1 112.473C116.1 113.346 115.342 113.983 114.5 113.983C113.657 113.983 112.9 113.346 112.9 112.473C112.9 111.6 113.657 110.964 114.5 110.963Z" fill="#FFEE38" stroke="#FFEE38"/>
<ellipse cx="98" cy="91.4478" rx="3.2" ry="5.14163" fill="#FFFEFB"/>
<ellipse cx="95.6" cy="93.6513" rx="2.93808" ry="5.6" transform="rotate(-90 95.6 93.6513)" fill="#FFFEFB"/>
<ellipse cx="98" cy="95.8549" rx="3.2" ry="5.14163" transform="rotate(180 98 95.8549)" fill="#FFFEFB"/>
<ellipse cx="100.4" cy="93.651" rx="2.93808" ry="5.6" transform="rotate(90 100.4 93.651)" fill="#FFFEFB"/>
<path d="M97.9996 91.6821C99.1183 91.6821 100.1 92.5242 100.1 93.6509C100.1 94.7777 99.1183 95.6206 97.9996 95.6206C96.881 95.6204 95.9 94.7776 95.9 93.6509C95.9002 92.5243 96.8811 91.6823 97.9996 91.6821Z" fill="#FFEE38" stroke="#FFEE38"/>
<ellipse cx="74.4998" cy="118.946" rx="2.6" ry="4.17758" fill="#FFFEFB"/>
<ellipse cx="72.55" cy="120.737" rx="2.38719" ry="4.55" transform="rotate(-90 72.55 120.737)" fill="#FFFEFB"/>
<ellipse cx="74.5002" cy="122.527" rx="2.6" ry="4.17758" transform="rotate(180 74.5002 122.527)" fill="#FFFEFB"/>
<ellipse cx="76.45" cy="120.736" rx="2.38719" ry="4.55" transform="rotate(90 76.45 120.736)" fill="#FFFEFB"/>
<path d="M74.4997 119.042C75.4527 119.042 76.2994 119.761 76.2995 120.736C76.2995 121.711 75.4528 122.429 74.4997 122.429C73.5467 122.429 72.6999 121.71 72.6999 120.736C72.7001 119.761 73.5468 119.043 74.4997 119.042Z" fill="#FFEE38" stroke="#FFEE38"/>
<ellipse cx="3.18313" cy="5.17361" rx="3.18313" ry="5.17361" transform="matrix(0.971046 0.238894 -0.28015 0.959956 93.7776 127.845)" fill="#FFFEFB"/>
<ellipse cx="2.95635" cy="5.57047" rx="2.95635" ry="5.57047" transform="matrix(0.28015 -0.959956 0.971046 0.238894 86.2423 136.637)" fill="#FFFEFB"/>
<ellipse cx="3.18313" cy="5.17361" rx="3.18313" ry="5.17361" transform="matrix(-0.971046 -0.238894 0.28015 -0.959956 95.8184 143.556)" fill="#FFFEFB"/>
<ellipse cx="2.95635" cy="5.57047" rx="2.95635" ry="5.57047" transform="matrix(-0.28015 0.959956 -0.971046 -0.238894 103.354 134.764)" fill="#FFFEFB"/>
<path d="M95.3524 133.802C96.4395 134.069 97.1449 135.119 96.8293 136.201C96.5136 137.282 95.3312 137.867 94.2441 137.599C93.1569 137.332 92.4515 136.283 92.7669 135.201C93.0825 134.12 94.2651 133.534 95.3524 133.802Z" fill="#FFEE38" stroke="#FFEE38"/>
<ellipse cx="65.9998" cy="92.641" rx="2.8" ry="4.49893" fill="#FFFEFB"/>
<ellipse cx="63.9" cy="94.5698" rx="2.57082" ry="4.9" transform="rotate(-90 63.9 94.5698)" fill="#FFFEFB"/>
<ellipse cx="66.0002" cy="96.4977" rx="2.8" ry="4.49893" transform="rotate(180 66.0002 96.4977)" fill="#FFFEFB"/>
<ellipse cx="68.1" cy="94.5689" rx="2.57082" ry="4.9" transform="rotate(90 68.1 94.5689)" fill="#FFFEFB"/>
<path d="M66.0003 92.7842C67.0084 92.7844 67.8996 93.5442 67.8997 94.5693C67.8997 95.5946 67.0084 96.3553 66.0003 96.3555C64.992 96.3555 64.0999 95.5947 64.0999 94.5693C64.1001 93.5441 64.9921 92.7842 66.0003 92.7842Z" fill="#FFEE38" stroke="#FFEE38"/>
<ellipse cx="3.18037" cy="5.1788" rx="3.18037" ry="5.1788" transform="matrix(0.966181 -0.257866 0.301833 0.953361 33.6942 76.3999)" fill="#FFFEFB"/>
<ellipse cx="2.95932" cy="5.56564" rx="2.95932" ry="5.56564" transform="matrix(-0.301833 -0.953361 0.966181 -0.257866 32.2112 87.5044)" fill="#FFFEFB"/>
<ellipse cx="3.18037" cy="5.1788" rx="3.18037" ry="5.1788" transform="matrix(-0.966181 0.257866 -0.301833 -0.953361 44.3059 88.8662)" fill="#FFFEFB"/>
<ellipse cx="2.95932" cy="5.56564" rx="2.95932" ry="5.56564" transform="matrix(0.301833 0.953361 -0.966181 0.257866 45.7888 77.7612)" fill="#FFFEFB"/>
<path d="M38.4022 80.7457C39.4841 80.4569 40.6796 81.0197 41.0198 82.0937C41.3598 83.1678 40.6791 84.2312 39.5971 84.52C38.5153 84.8086 37.3205 84.2457 36.9805 83.1717C36.6406 82.0978 37.3205 81.0346 38.4022 80.7457Z" fill="#FFEE38" stroke="#FFEE38"/>
<ellipse cx="2.3602" cy="3.83609" rx="2.3602" ry="3.83609" transform="matrix(0.971046 0.238894 -0.28015 0.959956 62.5083 60.5259)" fill="#FFFEFB"/>
<ellipse cx="2.19205" cy="4.13035" rx="2.19205" ry="4.13035" transform="matrix(0.28015 -0.959956 0.971046 0.238894 56.9212 67.0444)" fill="#FFFEFB"/>
<ellipse cx="2.3602" cy="3.83609" rx="2.3602" ry="3.83609" transform="matrix(-0.971046 -0.238894 0.28015 -0.959956 64.0216 72.1748)" fill="#FFFEFB"/>
<ellipse cx="2.19205" cy="4.13035" rx="2.19205" ry="4.13035" transform="matrix(-0.28015 0.959956 -0.971046 -0.238894 69.6088 65.6553)" fill="#FFFEFB"/>
<path d="M63.7117 64.818C64.5782 65.0311 65.1529 65.8724 64.8967 66.7513C64.6401 67.6302 63.684 68.0957 62.8173 67.8825C61.951 67.6691 61.3771 66.8273 61.6336 65.9485C61.8902 65.0699 62.8453 64.605 63.7117 64.818Z" fill="#FFEE38" stroke="#FFEE38"/>
<ellipse cx="1.97344" cy="3.20748" rx="1.97344" ry="3.20748" transform="matrix(0.971046 0.238894 -0.28015 0.959956 61.4415 15.2847)" fill="#FFFEFB"/>
<ellipse cx="1.83284" cy="3.45352" rx="1.83284" ry="3.45352" transform="matrix(0.28015 -0.959956 0.971046 0.238894 56.7697 20.7363)" fill="#FFFEFB"/>
<ellipse cx="1.97344" cy="3.20748" rx="1.97344" ry="3.20748" transform="matrix(-0.971046 -0.238894 0.28015 -0.959956 62.7067 25.0254)" fill="#FFFEFB"/>
<ellipse cx="1.83284" cy="3.45352" rx="1.83284" ry="3.45352" transform="matrix(-0.28015 0.959956 -0.971046 -0.238894 67.3781 19.5737)" fill="#FFFEFB"/>
<path d="M62.4703 18.7957C63.2331 18.9833 63.7463 19.7267 63.5179 20.5103C63.2892 21.294 62.4396 21.7029 61.6767 21.5153C60.914 21.3274 60.4017 20.5835 60.6304 19.7999C60.8592 19.0166 61.7077 18.6083 62.4703 18.7957Z" fill="#FFEE38" stroke="#FFEE38"/>
<ellipse cx="2.32568" cy="3.90013" rx="2.32568" ry="3.90013" transform="matrix(0.883539 -0.468358 0.532322 0.846542 30.2437 44.3579)" fill="#FFFEFB"/>
<ellipse cx="2.22864" cy="4.06994" rx="2.22864" ry="4.06994" transform="matrix(-0.532322 -0.846542 0.883539 -0.468358 31.3138 52.5947)" fill="#FFFEFB"/>
<ellipse cx="2.32568" cy="3.90012" rx="2.32568" ry="3.90012" transform="matrix(-0.883539 0.468358 -0.532322 -0.846542 40.2852 51.6128)" fill="#FFFEFB"/>
<ellipse cx="2.22864" cy="4.06994" rx="2.22864" ry="4.06994" transform="matrix(0.532322 0.846542 -0.883539 0.468358 39.2151 43.3755)" fill="#FFFEFB"/>
<path d="M34.4054 46.6184C35.1988 46.198 36.2481 46.435 36.7332 47.2065C37.2184 47.978 36.9173 48.9308 36.124 49.3515C35.3305 49.7721 34.2805 49.5354 33.7953 48.7639C33.3102 47.9923 33.6119 47.039 34.4054 46.6184Z" fill="#FFEE38" stroke="#FFEE38"/>
<rect x="361" y="35.8076" width="14" height="9.18149" fill="#ABC956"/>
<path d="M0 44.53H2H9.06526L6.54322 35.8076L1 43.1528L2 36.2667L8.88109e-06 40.3984L0 44.53Z" fill="#ABC956"/>
</svg>
