<svg width="205" height="145" viewBox="0 0 205 145" fill="none" xmlns="http://www.w3.org/2000/svg">
<g filter="url(#filter0_f_1418_16894)">
<path d="M123.695 127.503C159.762 127.503 189 122.887 189 117.192C189 111.497 159.762 106.881 123.695 106.881C87.6286 106.881 58.3907 111.497 58.3907 117.192C58.3907 122.887 87.6286 127.503 123.695 127.503Z" fill="#958536" fill-opacity="0.15"/>
</g>
<g filter="url(#filter1_f_1418_16894)">
<path d="M119 118.709C137.778 118.709 153 117.142 153 115.209C153 113.276 137.778 111.709 119 111.709C100.222 111.709 85 113.276 85 115.209C85 117.142 100.222 118.709 119 118.709Z" fill="#635824" fill-opacity="0.2"/>
</g>
<g filter="url(#filter2_f_1418_16894)">
<ellipse cx="89" cy="102.5" rx="84" ry="37.5" fill="#D0A93E" fill-opacity="0.4"/>
</g>
<g opacity="0.8">
<path d="M140.956 15.2579C148.754 33.159 133.419 34.7148 124.122 34.7148C114.824 34.7148 107.287 26.0037 107.287 15.2579C107.287 4.51219 112.724 0 122.021 0C131.319 0 137.51 7.34818 140.956 15.2579Z" fill="url(#paint0_linear_1418_16894)"/>
<ellipse cx="87.5684" cy="92.625" rx="82.5" ry="47" fill="#E3C938"/>
<ellipse cx="84.4891" cy="84.168" rx="82.4891" ry="49.5266" fill="url(#paint1_linear_1418_16894)"/>
<path d="M145.023 52.1273C145.023 79.1893 124.463 98.6245 92.1254 98.6245C59.7883 98.6245 29.0234 75.6644 29.0234 48.6025C37.093 21.2847 59.7883 0.624512 92.1254 0.624512C124.463 0.624512 145.023 25.0654 145.023 52.1273Z" fill="url(#paint2_linear_1418_16894)"/>
<path d="M154.42 69.3031C168.569 101.045 122.18 119.625 84.4107 119.625C46.6414 119.625 16.0234 96.5672 16.0234 68.1245C16.0234 39.6818 49.2991 10.625 87.0684 10.625C124.838 10.625 141.893 45.5312 154.42 69.3031Z" fill="url(#paint3_linear_1418_16894)"/>
</g>
<path opacity="0.9" d="M144.108 59.3099C144.108 86.8483 105.97 119.67 74.5766 119.67C43.183 119.67 30.4216 86.8483 30.4216 59.3099C30.4216 31.7715 55.8712 9.44727 87.2649 9.44727C118.659 9.44727 144.108 31.7715 144.108 59.3099Z" fill="url(#paint4_radial_1418_16894)" fill-opacity="0.26"/>
<path opacity="0.9" d="M72.3608 17.7089C72.3608 19.6627 70.8534 21.4307 68.9939 21.4307C67.1344 21.4307 65.2037 19.6627 65.2037 17.7089C65.2037 15.7551 67.1344 14.1713 68.9939 14.1713C70.8534 14.1713 72.3608 15.7551 72.3608 17.7089Z" fill="white" fill-opacity="0.66"/>
<path opacity="0.9" d="M63.6555 25.7181C66.752 24.6426 64.605 19.3489 62.7548 18.9446C60.4367 18.5644 58.8235 20.4478 57.0713 23.1037C53.8747 27.9488 51.4202 36.2864 54.7829 34.1161C57.2097 31.9938 56.9625 28.9405 63.6555 25.7181Z" fill="white" fill-opacity="0.66"/>
<path d="M111.391 58.7857C113.565 71.9075 100.312 81.88 86.4298 81.88C72.5474 81.88 58.8645 73.4821 61.1185 58.7857C63.292 44.6142 73.5618 68.7582 86.7575 51.9624C100.968 69.808 109.218 45.664 111.391 58.7857Z" fill="#ECA34B"/>
<ellipse cx="99.7673" cy="46.5772" rx="3.3669" ry="3.53762" fill="#474747"/>
<ellipse cx="73.9646" cy="46.0469" rx="3.3669" ry="3.53762" fill="#474747"/>
<circle cx="74.0234" cy="44.625" r="1" fill="#FFFEFB"/>
<circle cx="100.023" cy="44.625" r="1" fill="#FFFEFB"/>
<defs>
<filter id="filter0_f_1418_16894" x="42.3907" y="90.8809" width="162.609" height="52.6226" filterUnits="userSpaceOnUse" color-interpolation-filters="sRGB">
<feFlood flood-opacity="0" result="BackgroundImageFix"/>
<feBlend mode="normal" in="SourceGraphic" in2="BackgroundImageFix" result="shape"/>
<feGaussianBlur stdDeviation="8" result="effect1_foregroundBlur_1418_16894"/>
</filter>
<filter id="filter1_f_1418_16894" x="77" y="103.709" width="84" height="23" filterUnits="userSpaceOnUse" color-interpolation-filters="sRGB">
<feFlood flood-opacity="0" result="BackgroundImageFix"/>
<feBlend mode="normal" in="SourceGraphic" in2="BackgroundImageFix" result="shape"/>
<feGaussianBlur stdDeviation="4" result="effect1_foregroundBlur_1418_16894"/>
</filter>
<filter id="filter2_f_1418_16894" x="0" y="60" width="178" height="85" filterUnits="userSpaceOnUse" color-interpolation-filters="sRGB">
<feFlood flood-opacity="0" result="BackgroundImageFix"/>
<feBlend mode="normal" in="SourceGraphic" in2="BackgroundImageFix" result="shape"/>
<feGaussianBlur stdDeviation="2.5" result="effect1_foregroundBlur_1418_16894"/>
</filter>
<linearGradient id="paint0_linear_1418_16894" x1="125.191" y1="0" x2="125.191" y2="34.7148" gradientUnits="userSpaceOnUse">
<stop stop-color="#FFC118"/>
<stop offset="0.317308" stop-color="#FFDE69"/>
<stop offset="0.911401" stop-color="#FFED4A"/>
<stop offset="0.973901" stop-color="#FFED4A"/>
</linearGradient>
<linearGradient id="paint1_linear_1418_16894" x1="84.4891" y1="34.6414" x2="84.4891" y2="133.695" gradientUnits="userSpaceOnUse">
<stop stop-color="#FFC118"/>
<stop offset="0.317308" stop-color="#FFDE69"/>
<stop offset="0.911401" stop-color="#FFED4A"/>
<stop offset="0.973901" stop-color="#FFED4A"/>
</linearGradient>
<linearGradient id="paint2_linear_1418_16894" x1="87.0234" y1="0.624512" x2="87.0234" y2="98.6245" gradientUnits="userSpaceOnUse">
<stop stop-color="#FFC118"/>
<stop offset="0.317308" stop-color="#FFDE69"/>
<stop offset="0.911401" stop-color="#FFED4A"/>
<stop offset="0.973901" stop-color="#FFED4A"/>
</linearGradient>
<linearGradient id="paint3_linear_1418_16894" x1="86.5234" y1="16.6245" x2="86.5234" y2="119.625" gradientUnits="userSpaceOnUse">
<stop stop-color="#FFCD18"/>
<stop offset="0.317308" stop-color="#FFDE69"/>
<stop offset="1" stop-color="#FFED4A"/>
</linearGradient>
<radialGradient id="paint4_radial_1418_16894" cx="0" cy="0" r="1" gradientUnits="userSpaceOnUse" gradientTransform="translate(87.2649 59.3099) rotate(90) scale(49.8626 56.8432)">
<stop stop-color="#FDAAC8"/>
<stop offset="1" stop-color="#D15C87" stop-opacity="0"/>
</radialGradient>
</defs>
</svg>
