<svg width="85" height="85" viewBox="0 0 85 85" fill="none" xmlns="http://www.w3.org/2000/svg">
<g id="Group 26">
<circle id="Ellipse 594" cx="42.5" cy="42.5" r="42.5" transform="matrix(-1 0 0 1 85 0)" fill="#E6E1F6"/>
<circle id="Ellipse 591" cx="29.5" cy="29.5" r="29.5" transform="matrix(-1 0 0 1 72 13)" fill="url(#paint0_linear_1011_1553)"/>
<g id="Group 24">
<path id="&#236;&#131;&#137;" d="M68 40.619C68 53.1112 50.8913 68 36.808 68C22.7248 68 17 53.1112 17 40.619C17 28.1269 28.4167 18 42.5 18C56.5833 18 68 28.1269 68 40.619Z" fill="url(#paint1_radial_1011_1553)" fill-opacity="0.26"/>
<path id="&#236;&#158;&#133;" d="M31.6047 40.0439L31.111 39.9649L31.6047 40.0439C31.7237 39.3001 31.8884 38.8854 32.0504 38.6653C32.1859 38.4813 32.3191 38.4291 32.4984 38.4301C32.7234 38.4313 33.0254 38.521 33.4436 38.7033C33.6842 38.8083 33.9213 38.9237 34.1798 39.0495C34.382 39.148 34.5973 39.2528 34.8375 39.3639C35.8717 39.8422 37.1495 40.3276 38.5837 40.1734C39.9183 40.0299 41.3097 39.3434 42.7309 37.7663C44.2438 39.4516 45.6573 40.2237 46.9765 40.427C48.4017 40.6467 49.618 40.1858 50.5828 39.6985C50.8573 39.5598 51.1457 39.4 51.4042 39.2567C51.5725 39.1635 51.7281 39.0772 51.8592 39.0083C52.2405 38.8078 52.5016 38.7035 52.6904 38.6841C52.7733 38.6755 52.8233 38.686 52.857 38.7C52.8896 38.7136 52.9377 38.7433 52.9976 38.8219C53.1311 38.9968 53.2811 39.3573 53.4007 40.05C53.8559 42.6849 52.7078 45.0258 50.6468 46.7358C48.5789 48.4515 45.6201 49.5 42.5815 49.5C39.5218 49.5 36.5136 48.6107 34.4101 46.9819C32.3261 45.368 31.1266 43.033 31.6047 40.0439Z" fill="url(#paint2_linear_1011_1553)" stroke="url(#paint3_linear_1011_1553)"/>
<circle id="&#236;&#152;&#164;&#235;&#136;&#136;" cx="48.5" cy="34.5" r="1.5" fill="url(#paint4_linear_1011_1553)"/>
<circle id="&#236;&#153;&#188;&#235;&#136;&#136;" cx="36.5" cy="34.5" r="1.5" fill="url(#paint5_linear_1011_1553)"/>
</g>
<path id="&#235;&#143;&#153; &#235;&#185;&#155;" d="M33.0908 21.9492C33.0908 23.0258 32.2484 24 31.2091 24C30.1699 24 29.0908 23.0258 29.0908 21.9492C29.0908 20.8727 30.1698 20 31.2091 20C32.2483 20 33.0908 20.8727 33.0908 21.9492Z" fill="white" fill-opacity="0.66"/>
<path id="&#235;&#143;&#153; &#235;&#185;&#155;_2" d="M37 33.4873C37 33.7564 36.7894 34 36.5296 34C36.2698 34 36 33.7564 36 33.4873C36 33.2182 36.2698 33 36.5296 33C36.7894 33 37 33.2182 37 33.4873Z" fill="url(#paint6_radial_1011_1553)" fill-opacity="0.9"/>
<path id="&#235;&#143;&#153; &#235;&#185;&#155;_3" d="M49 33.4873C49 33.7564 48.7894 34 48.5296 34C48.2698 34 48 33.7564 48 33.4873C48 33.2182 48.2698 33 48.5296 33C48.7894 33 49 33.2182 49 33.4873Z" fill="url(#paint7_radial_1011_1553)" fill-opacity="0.9"/>
<path id="&#235;&#143;&#153; &#235;&#185;&#155;_4" d="M37 35.4873C37 35.7564 36.7894 36 36.5296 36C36.2698 36 36 35.7564 36 35.4873C36 35.2182 36.2698 35 36.5296 35C36.7894 35 37 35.2182 37 35.4873Z" fill="url(#paint8_radial_1011_1553)" fill-opacity="0.3"/>
<path id="&#235;&#143;&#153; &#235;&#185;&#155;_5" d="M49 35.4873C49 35.7564 48.7894 36 48.5296 36C48.2698 36 48 35.7564 48 35.4873C48 35.2182 48.2698 35 48.5296 35C48.7894 35 49 35.2182 49 35.4873Z" fill="url(#paint9_radial_1011_1553)" fill-opacity="0.3"/>
<path id="&#234;&#184;&#180; &#235;&#185;&#155;" d="M28.4279 26.7418C30.2358 26.1138 28.9822 23.023 27.902 22.787C26.5485 22.565 25.6067 23.6647 24.5836 25.2153C22.7173 28.0442 21.2842 32.9121 23.2476 31.645C24.6645 30.4059 24.5201 28.6232 28.4279 26.7418Z" fill="white" fill-opacity="0.66"/>
<path id="Ellipse 596" d="M50 47C50 48.6569 46.6421 50 42.5 50C38.3579 50 35 48.6569 35 47C35 45.3431 38.3579 44.5 42.5 44.5C46.6421 44.5 50 45.3431 50 47Z" fill="url(#paint10_linear_1011_1553)"/>
</g>
<defs>
<linearGradient id="paint0_linear_1011_1553" x1="29.5" y1="0" x2="29.5" y2="59" gradientUnits="userSpaceOnUse">
<stop stop-color="#C0AFFF"/>
<stop offset="1" stop-color="#AB95FE"/>
</linearGradient>
<radialGradient id="paint1_radial_1011_1553" cx="0" cy="0" r="1" gradientUnits="userSpaceOnUse" gradientTransform="translate(42.5 40.619) rotate(90) scale(22.619 25.5)">
<stop stop-color="#FDAAC8"/>
<stop offset="1" stop-color="#D15C87" stop-opacity="0"/>
</radialGradient>
<linearGradient id="paint2_linear_1011_1553" x1="42.5" y1="37" x2="42.5" y2="50" gradientUnits="userSpaceOnUse">
<stop stop-color="#D48383"/>
<stop offset="1" stop-color="#CF7878"/>
</linearGradient>
<linearGradient id="paint3_linear_1011_1553" x1="42.5" y1="37" x2="42.5" y2="50" gradientUnits="userSpaceOnUse">
<stop stop-color="#D58686"/>
<stop offset="1" stop-color="#CF7878"/>
</linearGradient>
<linearGradient id="paint4_linear_1011_1553" x1="48.5" y1="33" x2="48.5" y2="36" gradientUnits="userSpaceOnUse">
<stop stop-color="#474747"/>
<stop offset="1" stop-color="#353333"/>
</linearGradient>
<linearGradient id="paint5_linear_1011_1553" x1="36.5" y1="33" x2="36.5" y2="36" gradientUnits="userSpaceOnUse">
<stop stop-color="#474747"/>
<stop offset="1" stop-color="#353333"/>
</linearGradient>
<radialGradient id="paint6_radial_1011_1553" cx="0" cy="0" r="1" gradientUnits="userSpaceOnUse" gradientTransform="translate(36.5 33.5) rotate(90) scale(0.5)">
<stop stop-color="white"/>
<stop offset="0.83" stop-color="white"/>
<stop offset="1" stop-color="#999999" stop-opacity="0"/>
</radialGradient>
<radialGradient id="paint7_radial_1011_1553" cx="0" cy="0" r="1" gradientUnits="userSpaceOnUse" gradientTransform="translate(48.5 33.5) rotate(90) scale(0.5)">
<stop stop-color="white"/>
<stop offset="0.83" stop-color="white"/>
<stop offset="1" stop-color="#999999" stop-opacity="0"/>
</radialGradient>
<radialGradient id="paint8_radial_1011_1553" cx="0" cy="0" r="1" gradientUnits="userSpaceOnUse" gradientTransform="translate(36.5 35.5) rotate(90) scale(0.5)">
<stop stop-color="#FCFF58"/>
<stop offset="0.75" stop-color="#FCFF58" stop-opacity="0.89"/>
<stop offset="1" stop-color="white" stop-opacity="0"/>
</radialGradient>
<radialGradient id="paint9_radial_1011_1553" cx="0" cy="0" r="1" gradientUnits="userSpaceOnUse" gradientTransform="translate(48.5 35.5) rotate(90) scale(0.5)">
<stop stop-color="#FCFF58"/>
<stop offset="0.75" stop-color="#FCFF58" stop-opacity="0.89"/>
<stop offset="1" stop-color="white" stop-opacity="0"/>
</radialGradient>
<linearGradient id="paint10_linear_1011_1553" x1="42.5" y1="44" x2="42.5" y2="50" gradientUnits="userSpaceOnUse">
<stop stop-color="#FFC6C6"/>
<stop offset="1" stop-color="#EEA1A1"/>
</linearGradient>
</defs>
</svg>
