<svg width="24" height="24" viewBox="0 0 24 24" fill="none" xmlns="http://www.w3.org/2000/svg">
<path d="M20.1818 12C20.1818 7.48131 16.5187 3.81818 12 3.81818C7.48131 3.81818 3.81818 7.48131 3.81818 12C3.81818 16.5187 7.48131 20.1818 12 20.1818V22C6.47715 22 2 17.5228 2 12C2 6.47715 6.47715 2 12 2C17.5228 2 22 6.47715 22 12C22 17.5228 17.5228 22 12 22V20.1818C16.5187 20.1818 20.1818 16.5187 20.1818 12Z" fill="black"/>
<path d="M11.351 2.9143C11.351 2.40935 11.7624 2 12.2699 2C12.7774 2 13.1888 2.40935 13.1888 2.9143V11.0189L20.4719 14.4297C20.931 14.6446 21.1284 15.1898 20.9125 15.6466C20.6964 16.1035 20.1485 16.2999 19.6894 16.085L12.3776 12.6609L5.46963 17.8172C5.06364 18.1201 4.48816 18.0381 4.1837 17.6342C3.87933 17.2302 3.96171 16.6576 4.36766 16.3547L11.351 11.143V2.9143Z" fill="black"/>
<path d="M15.6279 13.2696C16.017 12.9458 16.5772 13.0201 16.8787 13.4355C17.1801 13.8509 17.109 14.4507 16.72 14.7745L9.45795 20.818C9.06886 21.1418 8.50861 21.0675 8.20716 20.6521C7.90573 20.2366 7.97681 19.6369 8.36588 19.3131L15.6279 13.2696Z" fill="black"/>
<path d="M12.0881 6.474C12.294 6.05063 12.7946 5.87898 13.2063 6.09066L21.5392 10.376C21.9508 10.5877 22.1177 11.1026 21.9119 11.526C21.706 11.9494 21.2054 12.121 20.7937 11.9093L12.4608 7.62401C12.0492 7.41232 11.8823 6.89737 12.0881 6.474Z" fill="black"/>
<path d="M7 14.1852V4.81481C7 4.36481 7.44772 4 8 4C8.55228 4 9 4.10294 9 4.55295V14.1852C9 14.6352 8.55228 15 8 15C7.44772 15 7 14.6352 7 14.1852Z" fill="black"/>
</svg>
