<svg width="22" height="22" viewBox="0 0 22 22" fill="none" xmlns="http://www.w3.org/2000/svg">
<path fill-rule="evenodd" clip-rule="evenodd" d="M18.1032 13.9002C17.8736 14.7102 17.5179 15.4838 17.0451 16.1913C16.155 17.5234 14.8899 18.5616 13.4097 19.1747C11.9295 19.7878 10.3008 19.9482 8.72941 19.6356C7.15807 19.3231 5.7147 18.5516 4.58182 17.4188C3.44894 16.286 2.67744 14.8426 2.36488 13.2713C2.05232 11.7 2.21274 10.0714 2.82585 8.59124C3.43896 7.11112 4.47722 5.84604 5.80934 4.95597C6.51692 4.4832 7.29054 4.1275 8.10052 3.8979V10.2183C8.10052 12.2518 9.74903 13.9002 11.7826 13.9002H18.1032ZM20.5145 13.1589C20.6303 12.3538 19.9601 11.6911 19.1467 11.6911H11.7826C10.9691 11.6911 10.3097 11.0317 10.3097 10.2183V2.85445C10.3097 2.04106 9.64703 1.37089 8.8419 1.4867C7.32394 1.70504 5.86735 2.26029 4.58196 3.11913C2.88653 4.25194 1.56511 5.86204 0.784787 7.74583C0.00446704 9.62963 -0.1997 11.7025 0.198103 13.7023C0.595907 15.7021 1.57781 17.5391 3.01966 18.9809C4.4615 20.4227 6.29852 21.4046 8.29842 21.8024C10.2983 22.2001 12.3713 21.996 14.2551 21.2157C16.139 20.4354 17.7491 19.114 18.882 17.4186C19.7409 16.1333 20.2961 14.6768 20.5145 13.1589Z" fill="#7F7F7F"/>
<path d="M20.6191 10.2174C21.4326 10.2174 22.1028 9.55475 21.9869 8.74965C21.8648 7.90062 21.6369 7.06822 21.3072 6.2722C20.7891 5.02141 20.0297 3.88491 19.0723 2.92759C18.115 1.97028 16.9784 1.2109 15.7276 0.692801C14.9315 0.363077 14.0991 0.135191 13.2501 0.0130664C12.4449 -0.102739 11.7822 0.567427 11.7822 1.38081L11.7822 8.74466C11.7822 9.55805 12.4416 10.2174 13.255 10.2174H20.6191Z" fill="#7F7F7F"/>
</svg>
