<svg width="25" height="24" viewBox="0 0 25 24" fill="none" xmlns="http://www.w3.org/2000/svg">
<path d="M12 0C14.0075 0 15.8991 0.494349 17.5616 1.36622C18.0228 1.60807 18.2059 2.16244 18.0215 2.64941C17.7198 3.43976 16.7535 3.73202 15.986 3.37619C14.774 2.81423 13.4239 2.5 12 2.5C6.75329 2.5 2.5 6.75329 2.5 12C2.50002 17.2467 6.75331 21.5 12 21.5C17.2467 21.5 21.5 17.2467 21.5 12C21.5 11.938 21.4994 11.8762 21.4981 11.8145C21.4827 11.0525 22.0538 10.3633 22.816 10.3633C23.43 10.3633 23.9568 10.8168 23.9863 11.4301C23.9953 11.619 24 11.809 24 12C24 18.6274 18.6274 24 12 24C5.3726 24 2.4414e-05 18.6274 0 12C0 5.37258 5.37258 0 12 0Z" fill="#7F7F7F"/>
<path d="M7.16727 10.7071L11.1773 14.7172C11.3726 14.9125 11.6892 14.9125 11.8845 14.7172L22.9854 3.61629" stroke="#7F7F7F" stroke-width="2.5" stroke-linecap="round"/>
</svg>
