<svg width="24" height="24" viewBox="0 0 24 24" fill="none" xmlns="http://www.w3.org/2000/svg">
<path d="M7.73242 1.33984C10.0968 0.395917 12.7078 0.263374 15.1553 0.963867C15.3322 1.01586 15.4813 1.13628 15.5703 1.29785C15.6595 1.45971 15.6808 1.65046 15.6299 1.82812C15.579 2.00572 15.4601 2.15605 15.2988 2.24609C15.1375 2.33617 14.9464 2.3585 14.7686 2.30859C13.2668 1.8779 11.6856 1.80156 10.1494 2.08594C8.61186 2.37064 7.16093 3.00903 5.91211 3.9502C4.66335 4.89135 3.65057 6.1101 2.95312 7.50977C2.25571 8.90941 1.89304 10.4518 1.89355 12.0156V12.0166C1.89535 13.4599 2.20599 14.8864 2.80566 16.1992C3.4054 17.5121 4.28028 18.6807 5.37012 19.627C6.45999 20.5732 7.74004 21.2752 9.12402 21.6846C10.5079 22.0939 11.9635 22.2011 13.3926 22C14.8218 21.7989 16.1919 21.294 17.4092 20.5186C18.6264 19.7431 19.6628 18.7151 20.4492 17.5049C21.2357 16.2946 21.7536 14.9294 21.9678 13.502C22.1819 12.0747 22.0879 10.6181 21.6914 9.23047L21.6836 9.20508L21.6514 9.06641C21.6454 9.01957 21.6439 8.97213 21.6475 8.9248C21.6546 8.82998 21.6807 8.73763 21.7246 8.65332C21.7685 8.56914 21.8289 8.49465 21.9023 8.43457C21.976 8.37443 22.0619 8.32989 22.1533 8.30371C22.2447 8.27758 22.3403 8.27022 22.4346 8.28223C22.5287 8.29423 22.6194 8.32495 22.7012 8.37305C22.7831 8.4213 22.8549 8.48585 22.9111 8.5625C22.9673 8.63914 23.0069 8.72674 23.0283 8.81934L23.0312 8.83203L23.0352 8.84473C23.7345 11.2928 23.6016 13.9042 22.6572 16.2686C21.7128 18.6328 20.0106 20.6169 17.8174 21.9092C15.6241 23.2014 13.0635 23.7292 10.5381 23.4092C8.0126 23.0891 5.6641 21.9393 3.8623 20.1406H3.86328C2.06344 18.339 0.912604 15.9904 0.591797 13.4639C0.271044 10.9374 0.798403 8.376 2.09082 6.18164C3.38327 3.98725 5.3675 2.28401 7.73242 1.33984ZM8.75879 6.14941C9.97679 5.47923 11.373 5.2047 12.7539 5.36426L12.7656 5.36523C12.8581 5.37387 12.9483 5.40056 13.0303 5.44434C13.1122 5.48811 13.1845 5.54805 13.2432 5.62012C13.3018 5.69233 13.346 5.77591 13.3721 5.86523C13.3982 5.95448 13.406 6.04824 13.3955 6.14062C13.385 6.23311 13.3561 6.32313 13.3105 6.4043C13.265 6.48539 13.2033 6.55616 13.1299 6.61328C13.0565 6.67041 12.9726 6.71308 12.8828 6.7373C12.793 6.76152 12.6986 6.76738 12.6064 6.75488L12.5977 6.75391L12.3184 6.72852C11.6676 6.68764 11.0139 6.76692 10.3906 6.96387C9.67827 7.18896 9.02176 7.56266 8.46387 8.05957C7.90595 8.55654 7.45904 9.16587 7.15332 9.84766C6.8476 10.5294 6.68945 11.2684 6.68945 12.0156C6.68956 12.9807 6.95358 13.9276 7.45215 14.7539C7.95063 15.58 8.66511 16.2542 9.51855 16.7041C10.3721 17.1539 11.3327 17.3624 12.2959 17.3066C13.2592 17.2508 14.1894 16.9332 14.9854 16.3877L14.9863 16.3867C15.7821 15.8398 16.4133 15.0858 16.8115 14.2061C17.2098 13.3263 17.3601 12.3544 17.2461 11.3955L17.2451 11.3887L17.2393 11.2959C17.2394 11.2039 17.2581 11.1127 17.2939 11.0273C17.3419 10.9133 17.4195 10.8134 17.5186 10.7393C17.6175 10.6653 17.7347 10.6193 17.8574 10.6055C17.9802 10.5917 18.1048 10.611 18.2178 10.6611L18.2197 10.6621C18.3328 10.7117 18.4311 10.7899 18.5039 10.8896C18.5768 10.9896 18.6221 11.1074 18.6348 11.2305V11.2373C18.7964 12.6182 18.5246 14.0152 17.8564 15.2344C17.1882 16.4536 16.1572 17.4355 14.9062 18.042C13.6553 18.6485 12.2459 18.8498 10.875 18.6191C9.50413 18.3885 8.23863 17.7373 7.25488 16.7549C6.27109 15.7724 5.61746 14.5076 5.38477 13.1367C5.15209 11.7659 5.35254 10.3566 5.95703 9.10449C6.56153 7.85236 7.54075 6.81964 8.75879 6.14941ZM20.5088 3.09961L20.5742 3.42578L20.9014 3.49121L23.3975 3.99023L21.3359 6.05469C21.1665 6.22322 20.9372 6.31784 20.6982 6.31836H18.6699L18.5234 6.46484L13.9512 11.04L13.748 11.2432L13.8213 11.5215C13.8903 11.7823 13.9029 12.0552 13.8584 12.3213C13.8139 12.5871 13.7135 12.8405 13.5635 13.0645C13.4134 13.2884 13.2172 13.4778 12.9883 13.6201C12.7592 13.7624 12.5018 13.8544 12.2344 13.8896C11.9671 13.9249 11.6955 13.9031 11.4375 13.8252C11.1794 13.7472 10.9404 13.615 10.7373 13.4375C10.5343 13.2601 10.3717 13.0412 10.2598 12.7959C10.1481 12.551 10.089 12.2848 10.0879 12.0156C10.0878 11.7243 10.1553 11.4361 10.2842 11.1748C10.413 10.9138 10.6001 10.686 10.8311 10.5088C11.0622 10.3315 11.3315 10.2091 11.6172 10.1523C11.9027 10.0957 12.1974 10.1061 12.4785 10.1816L12.7578 10.2559L12.9619 10.0518L17.5361 5.47559L17.6826 5.3291V3.30371C17.6826 3.06477 17.7773 2.83507 17.9453 2.66699L20.0098 0.601562L20.5088 3.09961Z" fill="#7F7F7F" stroke="#7F7F7F"/>
</svg>
