<svg width="24" height="24" viewBox="0 0 24 24" fill="none" xmlns="http://www.w3.org/2000/svg">
<circle cx="12" cy="12" r="11" stroke="#7F7F7F" stroke-width="2"/>
<circle cx="12" cy="9.81823" r="3.36364" stroke="#7F7F7F" stroke-width="2"/>
<path d="M12.0001 13.0908C16.2171 13.091 19.6364 15.5327 19.6368 18.5449L19.6348 19.3174C19.6319 19.8289 19.6213 20.497 19.6016 21.2832C18.9704 21.8007 18.2848 22.2531 17.5557 22.6348C17.6318 20.6936 17.6368 19.1972 17.6368 18.5449C17.6366 17.8524 17.2464 17.0363 16.2374 16.3154C15.2318 15.5973 13.7396 15.0909 12.0001 15.0908C10.2604 15.0909 8.76828 15.5973 7.76276 16.3154C6.75356 17.0363 6.36449 17.8523 6.36432 18.5449C6.36432 19.2335 6.31914 20.6945 6.32428 22.5742C5.61181 22.191 4.94317 21.7375 4.32623 21.2236C4.32865 20.9562 4.33058 20.7028 4.33405 20.4648L4.36432 18.5449C4.36465 15.5327 7.78297 13.0909 12.0001 13.0908Z" fill="#7F7F7F"/>
</svg>
