<svg width="21" height="22" viewBox="0 0 21 22" fill="none" xmlns="http://www.w3.org/2000/svg">
<path fill-rule="evenodd" clip-rule="evenodd" d="M4.2 4.75444H16.8C17.9598 4.75444 18.9 5.69251 18.9 6.84969V17.8096C18.9 18.9668 17.9598 19.9048 16.8 19.9048H4.2C3.0402 19.9048 2.1 18.9668 2.1 17.8096V6.84969C2.1 5.69251 3.0402 4.75444 4.2 4.75444ZM16.8 2.65918C19.1196 2.65918 21 4.53534 21 6.84969V17.8096C21 20.1239 19.1196 22.0001 16.8 22.0001H4.2C1.8804 22.0001 0 20.1239 0 17.8096V6.84969C0 4.53534 1.8804 2.65918 4.2 2.65918H16.8Z" fill="#7F7F7F"/>
<path fill-rule="evenodd" clip-rule="evenodd" d="M1.04995 9.106L19.95 9.106V7.01074L1.04995 7.01074V9.106Z" fill="#7F7F7F"/>
<path fill-rule="evenodd" clip-rule="evenodd" d="M5.94958 14.3181C5.94958 14.8967 6.41969 15.3658 6.99958 15.3658H13.9996C14.5795 15.3658 15.0496 14.8967 15.0496 14.3181C15.0496 13.7395 14.5795 13.2705 13.9996 13.2705H6.99958C6.41969 13.2705 5.94958 13.7395 5.94958 14.3181Z" fill="#7F7F7F"/>
<path fill-rule="evenodd" clip-rule="evenodd" d="M5.24995 0C4.67005 0 4.19995 0.469039 4.19995 1.04763V3.51265C4.19995 4.09124 4.67005 4.56028 5.24995 4.56028C5.82985 4.56028 6.29995 4.09124 6.29995 3.51265V1.04763C6.29995 0.469039 5.82985 0 5.24995 0Z" fill="#7F7F7F"/>
<path fill-rule="evenodd" clip-rule="evenodd" d="M15.1314 0C14.5515 0 14.0814 0.469039 14.0814 1.04763V3.51265C14.0814 4.09124 14.5515 4.56028 15.1314 4.56028C15.7113 4.56028 16.1814 4.09124 16.1814 3.51265V1.04763C16.1814 0.469039 15.7113 0 15.1314 0Z" fill="#7F7F7F"/>
</svg>
