<svg width="32" height="32" viewBox="0 0 32 32" fill="none" xmlns="http://www.w3.org/2000/svg">
<g id="Face with raised eyebrow/High Contrast">
<g id="Shape">
<path d="M13 20C12.4477 20 12 20.4477 12 21C12 21.5523 12.4477 22 13 22H19C19.5523 22 20 21.5523 20 21C20 20.4477 19.5523 20 19 20H13Z" fill="#1C1D1B" fill-opacity="0.5"/>
<path d="M19.9226 7.76726C20.0248 7.60572 20.1734 7.41965 20.4075 7.272C20.6381 7.12652 20.9806 7 21.5001 7C22.0135 7 22.351 7.13113 22.5819 7.28052C22.8188 7.43377 22.9722 7.62435 23.0957 7.79412C23.2582 8.01743 23.5709 8.06678 23.7942 7.90434C24.0175 7.7419 24.0668 7.42919 23.9044 7.20588C23.7577 7.00425 23.5176 6.69483 23.1252 6.44093C22.7268 6.18317 22.1994 6 21.5001 6C20.8068 6 20.2765 6.17229 19.874 6.42621C19.4748 6.67797 19.2298 6.9919 19.0775 7.23274C18.9299 7.46613 18.9994 7.77498 19.2328 7.92258C19.4662 8.07018 19.775 8.00064 19.9226 7.76726Z" fill="#1C1D1B" fill-opacity="0.5"/>
<path d="M9.40747 8.72806C9.1734 8.58041 9.02481 8.39434 8.92264 8.2328C8.77504 7.99942 8.46619 7.92988 8.23281 8.07748C7.99942 8.22508 7.92988 8.53393 8.07748 8.76732C8.2298 9.00816 8.47483 9.32209 8.87396 9.57385C9.2765 9.82777 9.80675 10.0001 10.5001 10.0001C11.1994 10.0001 11.7268 9.8169 12.1252 9.55913C12.5176 9.30523 12.7577 8.99581 12.9044 8.79418C13.0668 8.57087 13.0175 8.25816 12.7942 8.09572C12.5709 7.93328 12.2582 7.98263 12.0957 8.20594C11.9722 8.37571 11.8188 8.56629 11.5819 8.71954C11.351 8.86893 11.0135 9.00006 10.5001 9.00006C9.98062 9.00006 9.63811 8.87354 9.40747 8.72806Z" fill="#1C1D1B" fill-opacity="0.5"/>
<path d="M8.27589 10.3777C7.91834 10.1393 7.67053 9.87924 7.50007 9.69097C6.13992 10.6397 5.25 12.2159 5.25 14C5.25 16.8995 7.6005 19.25 10.5 19.25C13.3995 19.25 15.75 16.8995 15.75 14C15.75 12.2062 14.8504 10.6226 13.4778 9.67559L13.4604 9.6942C13.2879 9.87912 13.051 10.133 12.7073 10.3675C13.9321 11.1133 14.75 12.4611 14.75 14C14.75 16.3472 12.8472 18.25 10.5 18.25C8.15279 18.25 6.25 16.3472 6.25 14C6.25 12.4682 7.06042 11.1256 8.27589 10.3777Z" fill="#1C1D1B" fill-opacity="0.5"/>
<path d="M21 16C22.1046 16 23 15.1046 23 14C23 12.8954 22.1046 12 21 12C19.8954 12 19 12.8954 19 14C19 15.1046 19.8954 16 21 16Z" fill="#1C1D1B" fill-opacity="0.5"/>
<path d="M21.5 19.25C24.3995 19.25 26.75 16.8995 26.75 14C26.75 11.1005 24.3995 8.75 21.5 8.75C18.6005 8.75 16.25 11.1005 16.25 14C16.25 16.8995 18.6005 19.25 21.5 19.25ZM21.5 18.25C19.1528 18.25 17.25 16.3472 17.25 14C17.25 11.6528 19.1528 9.75 21.5 9.75C23.8472 9.75 25.75 11.6528 25.75 14C25.75 16.3472 23.8472 18.25 21.5 18.25Z" fill="#1C1D1B" fill-opacity="0.5"/>
<path d="M11 16C12.1046 16 13 15.1046 13 14C13 12.8954 12.1046 12 11 12C9.89543 12 9 12.8954 9 14C9 15.1046 9.89543 16 11 16Z" fill="#1C1D1B" fill-opacity="0.5"/>
<path d="M4.76342 5.42276C7.313 2.65419 11.0952 1 15.9989 1C20.9026 1 24.6848 2.65419 27.2343 5.42276C29.7715 8.17785 30.9978 11.9378 30.9978 15.9989C30.9978 20.06 29.7715 23.8199 27.2343 26.575C24.6848 29.3436 20.9026 30.9978 15.9989 30.9978C11.0952 30.9978 7.313 29.3436 4.76342 26.575C2.22626 23.8199 1 20.06 1 15.9989C1 11.9378 2.22626 8.17785 4.76342 5.42276ZM6.23462 6.77759C4.10595 9.08911 3 12.3286 3 15.9989C3 19.6691 4.10595 22.9087 6.23462 25.2202C8.35088 27.5182 11.5681 28.9978 15.9989 28.9978C20.4296 28.9978 23.6469 27.5182 25.7631 25.2202C27.8918 22.9087 28.9978 19.6691 28.9978 15.9989C28.9978 12.3286 27.8918 9.08911 25.7631 6.77759C23.6469 4.47956 20.4296 3 15.9989 3C11.5681 3 8.35088 4.47956 6.23462 6.77759Z" fill="#1C1D1B" fill-opacity="0.5"/>
</g>
</g>
</svg>
