<svg width="22" height="22" viewBox="0 0 22 22" fill="none" xmlns="http://www.w3.org/2000/svg">
<path d="M7.10352 1.2666C9.12792 0.458427 11.3503 0.302359 13.4619 0.813477L13.8818 0.924805C14.0328 0.969604 14.1603 1.07193 14.2363 1.20996C14.3127 1.34866 14.3307 1.51183 14.2871 1.66406C14.2435 1.81625 14.142 1.94525 14.0039 2.02246C13.8657 2.09965 13.7022 2.11891 13.5498 2.07617H13.5488C12.1661 1.67969 10.7103 1.60924 9.2959 1.87109C7.88013 2.13324 6.54444 2.72127 5.39453 3.58789C4.24468 4.45449 3.31213 5.57645 2.66992 6.86523C2.0277 8.15407 1.69287 9.57462 1.69336 11.0146L1.70801 11.5127C1.77151 12.6709 2.05104 13.8085 2.53418 14.8662C3.0864 16.0751 3.891 17.1521 4.89453 18.0234C5.89805 18.8947 7.07724 19.54 8.35156 19.917C9.62589 20.2939 10.9663 20.3932 12.2822 20.208C13.5982 20.0228 14.8596 19.5578 15.9805 18.8438C17.1013 18.1297 18.0561 17.1837 18.7803 16.0693C19.5045 14.9549 19.9815 13.6972 20.1787 12.3828C20.3759 11.0685 20.289 9.72705 19.9238 8.44922L19.9199 8.43652L19.916 8.4248L19.8877 8.30566C19.8826 8.26562 19.8818 8.22503 19.8848 8.18457C19.8909 8.10325 19.9135 8.02347 19.9512 7.95117C19.9888 7.87905 20.0405 7.81514 20.1035 7.76367C20.1667 7.71212 20.24 7.67381 20.3184 7.65137C20.3967 7.62894 20.4788 7.62254 20.5596 7.63281C20.6404 7.64311 20.7188 7.67054 20.7891 7.71191C20.8591 7.75325 20.9197 7.80845 20.9678 7.87402C21.016 7.93975 21.051 8.01433 21.0693 8.09375L21.0752 8.11914C21.7138 10.3544 21.5927 12.7387 20.7305 14.8975C19.8682 17.0562 18.3141 18.868 16.3115 20.0479C14.3089 21.2277 11.9708 21.7092 9.66504 21.417C7.50314 21.143 5.48333 20.2031 3.88379 18.7334L3.57031 18.4326C1.92715 16.7877 0.876901 14.6436 0.583984 12.3369C0.291074 10.03 0.772085 7.6911 1.95215 5.6875C3.13221 3.68391 4.94423 2.12867 7.10352 1.2666ZM8.04883 5.67285C9.08832 5.10093 10.2706 4.84559 11.4502 4.93555L11.6865 4.95898L11.6973 4.95996C11.7767 4.96733 11.8545 4.98977 11.9248 5.02734C11.9951 5.06491 12.0571 5.11682 12.1074 5.17871C12.1576 5.24058 12.1954 5.31217 12.2178 5.38867C12.24 5.465 12.2463 5.54503 12.2373 5.62402C12.2283 5.70314 12.204 5.78015 12.165 5.84961C12.126 5.91918 12.0727 5.98031 12.0098 6.0293C11.9468 6.07823 11.8748 6.115 11.7979 6.13574C11.7595 6.14606 11.7201 6.15176 11.6807 6.1543L11.5615 6.15039L11.5527 6.14941L11.2949 6.12598C10.6933 6.08813 10.0889 6.16173 9.5127 6.34375C8.85409 6.55186 8.24626 6.89703 7.73047 7.35645C7.21474 7.81584 6.80218 8.37956 6.51953 9.00977C6.23688 9.64011 6.09082 10.3238 6.09082 11.0146L6.10156 11.3477C6.15452 12.1234 6.39158 12.8774 6.79492 13.5459C7.25586 14.3098 7.9168 14.9337 8.70605 15.3496C9.49533 15.7656 10.3838 15.9579 11.2744 15.9062C12.0536 15.861 12.8089 15.6301 13.4785 15.2354L13.7607 15.0566V15.0557C14.4966 14.55 15.08 13.8525 15.4482 13.0391C15.7704 12.3273 15.917 11.5505 15.8779 10.7734L15.8506 10.4404L15.8496 10.4336L15.8438 10.3555C15.8438 10.2763 15.8597 10.1975 15.8906 10.124C15.9317 10.0264 15.9982 9.94141 16.083 9.87793C16.1679 9.81442 16.2687 9.77458 16.374 9.7627C16.453 9.75385 16.5327 9.76097 16.6084 9.7832L16.6826 9.81055L16.6846 9.81152C16.7815 9.85401 16.8653 9.92138 16.9277 10.0068C16.9745 10.071 17.008 10.144 17.0264 10.2207L17.04 10.2988L17.041 10.3057C17.1882 11.563 16.9405 12.8352 16.332 13.9453C15.7236 15.0554 14.7845 15.9488 13.6455 16.501C12.5066 17.0531 11.2237 17.2363 9.97559 17.0264C8.72751 16.8164 7.57531 16.2235 6.67969 15.3291C5.78405 14.4347 5.18941 13.2832 4.97754 12.0352C4.76571 10.7872 4.94779 9.5042 5.49805 8.36426C6.04841 7.22424 6.93987 6.28306 8.04883 5.67285ZM18.7588 2.84961L18.8242 3.17578L21.3633 3.68359L19.5283 5.52051C19.3807 5.66729 19.1808 5.74964 18.9727 5.75H17.0977L16.9512 5.89648L12.7588 10.0908L12.5557 10.2939L12.6289 10.5723C12.6906 10.8055 12.7029 11.0491 12.6631 11.2871C12.6233 11.5252 12.5328 11.7526 12.3984 11.9531C12.2641 12.1535 12.0886 12.3229 11.8838 12.4502C11.6789 12.5775 11.4491 12.6598 11.21 12.6914C10.9707 12.723 10.7271 12.7026 10.4961 12.6328C10.2652 12.563 10.0518 12.4449 9.87012 12.2861C9.6884 12.1273 9.54254 11.9315 9.44238 11.7119C9.36721 11.5471 9.31851 11.3717 9.29883 11.1924L9.28906 11.0127C9.28923 10.7526 9.34892 10.496 9.46387 10.2627C9.57914 10.0289 9.7473 9.82467 9.9541 9.66602C10.1609 9.5074 10.4016 9.39841 10.6572 9.34766C10.9126 9.297 11.1762 9.30554 11.4277 9.37305L11.707 9.44824L11.9111 9.24414L16.1045 5.04883L16.251 4.90234V3.02832C16.251 2.8462 16.3139 2.67028 16.4277 2.53125L16.4795 2.47461L18.3154 0.636719L18.7588 2.84961Z" fill="#7F7F7F" stroke="#7F7F7F"/>
</svg>
