<svg width="22" height="22" viewBox="0 0 22 22" fill="none" xmlns="http://www.w3.org/2000/svg">
<path fill-rule="evenodd" clip-rule="evenodd" d="M10.9997 7.68264C9.42598 7.68264 8.15027 6.43186 8.15027 4.88895C8.15027 3.34604 9.42598 2.09527 10.9997 2.09527C12.5733 2.09527 13.849 3.34604 13.849 4.88895C13.849 6.43186 12.5733 7.68264 10.9997 7.68264ZM10.9997 9.7779C8.24573 9.7779 6.01323 7.58905 6.01323 4.88895C6.01323 2.18886 8.24573 0 10.9997 0C13.7536 0 15.9861 2.18886 15.9861 4.88895C15.9861 7.58905 13.7536 9.7779 10.9997 9.7779Z" fill="#7F7F7F"/>
<path fill-rule="evenodd" clip-rule="evenodd" d="M11 13.6192C15.9598 13.6192 18.5321 16.1174 19.7485 18.4359C19.937 18.7951 19.8786 19.1094 19.6699 19.3736C19.4395 19.6653 19.0026 19.905 18.4575 19.905H3.54254C2.99735 19.905 2.56053 19.6653 2.33006 19.3736C2.1214 19.1094 2.06305 18.7951 2.25154 18.4359C3.46791 16.1174 6.04023 13.6192 11 13.6192ZM21.6488 17.4775C20.1217 14.5667 16.8749 11.5239 11 11.5239C5.12505 11.5239 1.87827 14.5667 0.351164 17.4775C-0.244314 18.6125 -0.0390186 19.7962 0.640429 20.6565C1.29807 21.4891 2.37382 22.0003 3.54254 22.0003H18.4575C19.6262 22.0003 20.7019 21.4891 21.3596 20.6565C22.039 19.7962 22.2443 18.6125 21.6488 17.4775Z" fill="#7F7F7F"/>
</svg>
