<svg width="16" height="16" viewBox="0 0 16 16" fill="none" xmlns="http://www.w3.org/2000/svg">
<path d="M4.5 1.5H5C5.275 1.5 5.5 1.725 5.5 2V2.715C5.5 2.87 5.37 3 5.215 3H4.5C4.225 3 4 2.775 4 2.5V2C4 1.725 4.225 1.5 4.5 1.5Z" fill="#1C1D1B"/>
<path d="M5.995 14.515H6.5C6.775 14.515 7 14.29 7 14.015V13.515C7 13.24 6.775 13.015 6.5 13.015H5.285C5.13 13.015 5 13.145 5 13.3V13.52C5 14.07 5.445 14.515 5.995 14.515Z" fill="#1C1D1B"/>
<path d="M9 13.515V14.015C9 14.29 9.225 14.515 9.5 14.515H10.015C10.56 14.515 11 14.075 11 13.53V13.3C11 13.14 10.87 13.015 10.715 13.015H9.5C9.225 13.015 9 13.24 9 13.515Z" fill="#1C1D1B"/>
<path d="M12 2.5V2C12 1.725 11.775 1.5 11.5 1.5H11C10.725 1.5 10.5 1.725 10.5 2V2.715C10.5 2.87 10.63 3 10.785 3H11.5C11.775 3 12 2.775 12 2.5Z" fill="#1C1D1B"/>
<path d="M14 5.515C14 5.24 14.225 5.015 14.5 5.015C14.775 5.015 15 5.24 15 5.515V7.515C15 7.79 14.775 8.015 14.5 8.015H14.285C14.13 8.015 14 8.14 14 8.3V8.53C14 9.075 13.56 9.515 13.015 9.515H12.785C12.63 9.515 12.5 9.64 12.5 9.8V12.02C12.5 12.57 12.055 13.015 11.505 13.015H11.285C11.13 13.015 11 12.89 11 12.73V11.3C11 11.145 10.875 11.015 10.715 11.015H5.285C5.13 11.015 5 11.14 5 11.3V12.73C5 12.885 4.875 13.015 4.715 13.015H4.5C3.95 13.015 3.5 12.565 3.5 12.015V9.8C3.5 9.645 3.37 9.515 3.215 9.515H3C2.45 9.515 2 9.065 2 8.515V8.3C2 8.145 1.87 8.015 1.715 8.015H1.5C1.225 8.015 1 7.79 1 7.515V5.515C1 5.24 1.225 5.015 1.5 5.015H1.515C1.79 5.015 2.015 5.24 2.015 5.515V6.23C2.015 6.39 2.14 6.515 2.3 6.515L3.2 6.51C3.35 6.505 3.48 6.4 3.5 6.255C3.62 5.35 4.355 4.645 5.265 4.53C5.4 4.515 5.5 4.39 5.5 4.25V3.285C5.5 3.13 5.63 3 5.79 3H5.94C6.525 3 7 3.475 7 4.06V4.23C7 4.39 7.13 4.515 7.285 4.515H8.715C8.87 4.515 9 4.39 9 4.23V4.035C9 3.465 9.465 3 10.035 3H10.215C10.37 3 10.5 3.13 10.5 3.285V4.25C10.5 4.39 10.6 4.515 10.735 4.53C11.645 4.64 12.37 5.35 12.485 6.26C12.505 6.41 12.635 6.515 12.785 6.515H13.715C13.87 6.515 14 6.39 14 6.23V5.515ZM5.49996 8.5C5.77717 8.5 6.00487 8.2733 5.99992 7.99118V7.00882C5.99992 6.7267 5.77717 6.5 5.49996 6.5C5.22275 6.5 5 6.7267 5 7.00882V7.99118C5 8.2733 5.22275 8.5 5.49996 8.5ZM10 7.99118C10 8.2733 10.2228 8.5 10.5 8.5C10.7772 8.5 11 8.26826 11 7.99118V7.00882C11 6.7267 10.7772 6.5 10.5 6.5C10.2228 6.5 10 6.7267 10 7.00882V7.99118Z" fill="#1C1D1B"/>
</svg>
