<svg width="16" height="14" viewBox="0 0 16 14" fill="none" xmlns="http://www.w3.org/2000/svg">
<path d="M1 9.17305V4.82695C1 4.56539 1.24692 4.3742 1.50015 4.43969L3.99727 5.0855C4.12425 5.11834 4.25926 5.08684 4.3586 5.00121L8.33882 1.56998C8.59807 1.34649 9 1.53067 9 1.87294V12.1271C9 12.4693 8.59807 12.6535 8.33882 12.43L4.3586 8.99879C4.25926 8.91316 4.12425 8.88166 3.99727 8.9145L1.50015 9.56031C1.24692 9.6258 1 9.43461 1 9.17305Z" stroke="#1C1D1B" stroke-linejoin="round"/>
<path d="M11 3C11 3 12 4.83529 12 7C12 9.16471 11 11 11 11" stroke="#1C1D1B" stroke-linecap="round" stroke-linejoin="round"/>
<path d="M13 1C13 1 15 3.75294 15 7C15 10.2471 13 13 13 13" stroke="#1C1D1B" stroke-linecap="round" stroke-linejoin="round"/>
</svg>
