<svg width="24" height="24" viewBox="0 0 24 24" fill="none" xmlns="http://www.w3.org/2000/svg">
<g clip-path="url(#clip0_2240_8648)">
<path d="M12 3C15.1612 3 17.3558 4.09596 18.789 5.66113C20.1957 7.19728 20.7911 9.09835 20.9521 10.6152C21.0598 11.6301 20.3502 12.4428 19.4853 12.6592L14.6679 13.8643C12.9163 14.3022 11.0836 14.3022 9.332 13.8643L4.51462 12.6592C3.64977 12.4428 2.94015 11.6301 3.04782 10.6152L3.08298 10.3271C3.28613 8.8627 3.89194 7.10149 5.21091 5.66113C6.64419 4.09596 8.83879 3 12 3ZM12 5C9.34526 5 7.70563 5.89977 6.6865 7.0127C5.66848 8.12448 5.19199 9.5374 5.0488 10.7305L9.81735 11.9238C11.2503 12.282 12.7496 12.282 14.1826 11.9238L18.9502 10.7305C18.807 9.53743 18.3314 8.12444 17.3134 7.0127C16.2943 5.89977 14.6547 5 12 5Z" fill="black"/>
<path d="M9 18C9 17.9422 8.9737 17.7372 8.62891 17.4785C8.28328 17.2193 7.71367 17 7 17C5.9941 17 5.34708 17.1184 5.01465 17.2637C5.06072 17.4938 5.22607 17.9014 5.61719 18.3105C6.0647 18.7787 6.57214 19 7 19V21C4.79086 21 3 18.7994 3 17.1426C3.0002 15.4859 4.79098 15 7 15C9.20914 15 11 16.3431 11 18C11 19.6569 9.20914 21 7 21V19C7.71367 19 8.28328 18.7807 8.62891 18.5215C8.9737 18.2628 9 18.0578 9 18Z" fill="black"/>
<path d="M13 18C13 16.3431 14.7909 15 17 15C19.209 15 20.9998 15.4859 21 17.1426C21 18.7994 19.2091 21 17 21V19C17.4279 19 17.9353 18.7787 18.3828 18.3105C18.7738 17.9015 18.9383 17.4938 18.9844 17.2637C18.6517 17.1186 18.0051 17 17 17C16.2863 17 15.7167 17.2193 15.3711 17.4785C15.0263 17.7372 15 17.9422 15 18C15 18.0578 15.0263 18.2628 15.3711 18.5215C15.7167 18.7807 16.2863 19 17 19V21C14.7909 21 13 19.6569 13 18Z" fill="black"/>
<path d="M14 17.5C14.5523 17.5 15 17.9477 15 18.5C15 19.0523 14.5523 19.5 14 19.5H10C9.44772 19.5 9 19.0523 9 18.5C9 17.9477 9.44772 17.5 10 17.5H14Z" fill="black"/>
</g>
<defs>
<clipPath id="clip0_2240_8648">
<rect width="24" height="24" fill="white"/>
</clipPath>
</defs>
</svg>
