<svg width="24" height="24" viewBox="0 0 24 24" fill="none" xmlns="http://www.w3.org/2000/svg">
<g clip-path="url(#clip0_2240_8649)">
<path d="M15 18.5L16.5 13M15 18.5H21.4407M15 18.5L3.04645 6.54427M16.5 13C18.1667 13.3333 21.4407 13 21.5 17.5C21.5047 17.8588 21.479 18.1916 21.4407 18.5M16.5 13L13.2059 5.58825C12.8011 4.67736 11.7873 4.20364 10.8288 4.47748L9.8893 4.74592C9.32513 4.9071 8.71865 4.81243 8.23045 4.48697L7.49533 3.99689C6.64489 3.42993 5.50382 3.59542 4.84949 4.38062L2.16925 7.5969C1.50704 8.39155 1.56005 9.56005 2.29148 10.2915L13.4142 21.4142C13.7893 21.7893 14.298 22 14.8284 22H19C19.7399 21.852 21.1367 20.942 21.4407 18.5" stroke="black" stroke-width="2" stroke-linecap="round"/>
<path d="M14.5 9H12.5" stroke="black" stroke-width="2" stroke-linecap="round"/>
</g>
<defs>
<clipPath id="clip0_2240_8649">
<rect width="24" height="24" fill="white"/>
</clipPath>
</defs>
</svg>
