<svg width="40" height="40" viewBox="0 0 40 40" fill="none" xmlns="http://www.w3.org/2000/svg">
<g clip-path="url(#clip0_1116_11773)">
<path d="M13.2693 13.5571L12.3601 16.5806L12.3562 16.5942L12.3533 16.6089C12.2491 17.0455 12.3336 17.5497 12.5808 17.9507C12.8385 18.3684 13.2923 18.7007 13.9099 18.7007C14.7377 18.7007 15.3942 18.0445 15.4949 17.2388L16.0144 13.7759L16.1013 13.2017H13.3758L13.2693 13.5571ZM16.8435 13.6245L16.3494 16.7915L16.3474 16.8042L16.3455 16.8179C16.2489 17.7614 16.9194 18.7007 17.9412 18.7007C18.8978 18.7005 19.6011 17.9304 19.6013 17.022V13.2017H16.9099L16.8435 13.6245ZM20.4012 17.022C20.4014 17.9118 21.0872 18.7007 21.9988 18.7007C23.0859 18.7007 23.6807 17.8061 23.659 16.9712L23.6463 16.8062L23.6443 16.7925L23.159 13.6255L23.0935 13.2017H20.4012V17.022ZM26.2166 13.1929L24.4793 13.2017L23.9021 13.2046L23.9881 13.7759L24.5096 17.2485C24.6068 18.0587 25.2766 18.7006 26.0926 18.7007C26.7134 18.7007 27.168 18.3699 27.4256 17.9497C27.6723 17.5472 27.7538 17.0433 27.6502 16.6089L27.6463 16.5923L27.6404 16.5757L26.6961 13.5435L26.5857 13.1909L26.2166 13.1929ZM12.4031 18.9731L12.2879 18.8335C12.2016 18.7301 11.2374 17.907 11.5799 16.4233L12.5154 13.4185L12.5213 13.4019L12.5252 13.3843C12.6618 12.8053 13.174 12.4019 13.7478 12.4019H26.2459C26.8287 12.4019 27.3337 12.797 27.4783 13.3882L27.4822 13.4038L27.4871 13.4185L28.4246 16.4292C28.567 17.0048 28.5872 17.9588 27.7459 18.8003L27.5994 18.9468V26.2983C27.5993 27.0119 27.0131 27.5981 26.2996 27.5981H13.7029C12.9894 27.5981 12.4032 27.0119 12.4031 26.2983V18.9731Z" stroke="black"/>
</g>
<defs>
<clipPath id="clip0_1116_11773">
<rect width="40" height="40" fill="white"/>
</clipPath>
</defs>
</svg>
