<svg width="24" height="24" viewBox="0 0 24 24" fill="none" xmlns="http://www.w3.org/2000/svg">
<g id="Hundred points/High Contrast">
<g id="Shape">
<path d="M15.8055 13.39C15.0447 12.5979 14.9216 11.3312 15.0376 10.272C15.0817 9.87968 15.1294 9.48492 15.177 9.09017C15.2246 8.69541 15.2722 8.30066 15.3164 7.90836C15.4576 6.74223 15.7802 5.49641 16.4596 4.54616C17.0601 3.70194 17.9883 3.16512 18.981 3.03416C19.9361 2.90816 20.9932 3.11932 21.6712 3.85861C22.4094 4.6537 22.6114 5.87813 22.4456 6.96781C22.417 7.20222 22.3879 7.43742 22.3587 7.67292C22.2901 8.22662 22.2212 8.78194 22.1593 9.33242C22.051 10.5181 21.6785 11.7307 21.017 12.7025C20.4259 13.5614 19.4883 14.0835 18.4957 14.2145C17.5415 14.3483 16.5041 14.1106 15.8055 13.39ZM18.0118 8.86425C17.9448 9.41742 17.8778 9.97087 17.8191 10.5266C17.7533 11.1807 17.9728 11.4785 18.4466 11.416C18.9279 11.3525 19.1822 10.9922 19.248 10.3381C19.3082 9.73247 19.3821 9.12905 19.456 8.52564C19.5299 7.92223 19.6038 7.31881 19.6641 6.71321C19.7299 6.05907 19.5104 5.76131 19.0291 5.82481C18.5553 5.88731 18.3011 6.24758 18.2352 6.90172C18.17 7.55767 18.0909 8.21076 18.0118 8.86425Z" fill="#1C1D1B"/>
<path d="M7.16263 11.772C7.0466 12.8312 7.16968 14.0979 7.93049 14.89C8.62915 15.6106 9.66653 15.8483 10.6207 15.7145C11.6133 15.5835 12.5509 15.0614 13.142 14.2025C13.8035 13.2307 14.176 12.0181 14.2843 10.8324C14.3462 10.2822 14.415 9.72707 14.4836 9.17357L14.4837 9.17258C14.5129 8.9372 14.542 8.70211 14.5706 8.46781C14.7364 7.37813 14.5344 6.1537 13.7962 5.35861C13.1182 4.61932 12.0611 4.40816 11.106 4.53416C10.1133 4.66512 9.18514 5.20194 8.5846 6.04616C7.90523 6.99641 7.58262 8.24223 7.44135 9.40836C7.39725 9.80066 7.34962 10.1954 7.30199 10.5902C7.25436 10.9849 7.20674 11.3797 7.16263 11.772ZM10.1368 10.3643C10.2159 9.71078 10.295 9.05768 10.3602 8.40172C10.4261 7.74757 10.6803 7.38731 11.1541 7.32481C11.6354 7.26131 11.8549 7.55907 11.7891 8.21321C11.7288 8.8188 11.6549 9.42221 11.581 10.0256C11.5071 10.629 11.4332 11.2325 11.373 11.8381C11.3072 12.4922 11.0529 12.8525 10.5716 12.916C10.0978 12.9785 9.8783 12.6807 9.94413 12.0266C10.0028 11.4709 10.0698 10.9174 10.1368 10.3643Z" fill="#1C1D1B"/>
<path d="M5.02926 17.6306L6.37485 7.875C6.37485 7.875 6.74985 6 5.24985 6C4.30181 6 2.51101 8.15485 1.49778 9.48227C1.08284 10.0259 1.24728 10.7985 1.83371 11.1504C2.29867 11.4293 2.89383 11.3561 3.27724 10.9726L3.37486 10.875L2.46128 17.27C2.34969 18.0512 2.95579 18.75 3.74483 18.75C4.39246 18.75 4.94077 18.2721 5.02926 17.6306Z" fill="#1C1D1B"/>
<path d="M20.9825 15.2147C21.071 15.6193 20.8148 16.0191 20.4101 16.1077L8.41012 18.7327C8.00548 18.8212 7.60569 18.5649 7.51717 18.1602C7.42866 17.7556 7.68493 17.3558 8.08958 17.2673L20.0896 14.6423C20.4942 14.5538 20.894 14.8101 20.9825 15.2147Z" fill="#1C1D1B"/>
<path d="M19.1064 18.2098C19.1977 18.6138 18.9441 19.0153 18.5401 19.1066L6.91505 21.7316C6.51101 21.8228 6.10951 21.5692 6.01827 21.1652C5.92704 20.7611 6.18062 20.3596 6.58466 20.2684L18.2097 17.6434C18.6137 17.5522 19.0152 17.8057 19.1064 18.2098Z" fill="#1C1D1B"/>
</g>
</g>
</svg>
