<svg width="173" height="125" viewBox="0 0 173 125" fill="none" xmlns="http://www.w3.org/2000/svg">
<g id="character_shadowxxx 1" clip-path="url(#clip0_484_3805)">
<g id="Mask group">
<mask id="mask0_484_3805" style="mask-type:luminance" maskUnits="userSpaceOnUse" x="0" y="0" width="173" height="125">
<g id="Group">
<path id="Vector" d="M173 0H0V124.881H173V0Z" fill="white"/>
</g>
</mask>
<g mask="url(#mask0_484_3805)">
<g id="Group_2">
<path id="Vector_2" d="M75.6556 97.4445C102.448 97.4445 124.168 76.5792 124.168 50.8406C124.168 25.102 102.448 4.23669 75.6556 4.23669C48.8629 4.23669 27.1431 25.102 27.1431 50.8406C27.1431 76.5792 48.8629 97.4445 75.6556 97.4445Z" fill="#C0AFFF"/>
<path id="Vector_3" d="M70.8043 124.277C109.462 124.277 140.801 103.412 140.801 77.6731C140.801 51.9345 109.462 31.0692 70.8043 31.0692C32.1462 31.0692 0.807617 51.9345 0.807617 77.6731C0.807617 103.412 32.1462 124.277 70.8043 124.277Z" fill="#AA94F8"/>
<path id="Vector_4" d="M68.7252 115.804C106.235 115.804 136.643 98.0998 136.643 76.261C136.643 54.4221 106.235 36.7183 68.7252 36.7183C31.2153 36.7183 0.807617 54.4221 0.807617 76.261C0.807617 98.0998 31.2153 115.804 68.7252 115.804Z" fill="#C0AFFF"/>
<path id="Vector_5" d="M159.513 105.918C166.785 105.918 172.68 102.44 172.68 98.1504C172.68 93.8606 166.785 90.3831 159.513 90.3831C152.24 90.3831 146.345 93.8606 146.345 98.1504C146.345 102.44 152.24 105.918 159.513 105.918Z" fill="#C0AFFF"/>
<path id="Vector_6" d="M159.513 105.918C166.785 105.918 172.68 102.44 172.68 98.1504C172.68 93.8606 166.785 90.3831 159.513 90.3831C152.24 90.3831 146.345 93.8606 146.345 98.1504C146.345 102.44 152.24 105.918 159.513 105.918Z" fill="url(#paint0_linear_484_3805)" fill-opacity="0.2"/>
<path id="Vector_7" d="M153.275 69.1997C157.103 69.1997 160.206 67.9352 160.206 66.3753C160.206 64.8153 157.103 63.5508 153.275 63.5508C149.448 63.5508 146.345 64.8153 146.345 66.3753C146.345 67.9352 149.448 69.1997 153.275 69.1997Z" fill="#AA94F8"/>
<path id="Vector_8" d="M153.275 69.1997C157.103 69.1997 160.206 67.9352 160.206 66.3753C160.206 64.8153 157.103 63.5508 153.275 63.5508C149.448 63.5508 146.345 64.8153 146.345 66.3753C146.345 67.9352 149.448 69.1997 153.275 69.1997Z" fill="url(#paint1_linear_484_3805)" fill-opacity="0.2"/>
<path id="Vector_9" d="M68.032 80.4977C98.2695 80.4977 122.782 66.2713 122.782 48.7223C122.782 31.1732 98.2695 16.9469 68.032 16.9469C37.7946 16.9469 13.2822 31.1732 13.2822 48.7223C13.2822 66.2713 37.7946 80.4977 68.032 80.4977Z" fill="#C0AFFF"/>
<path id="Vector_10" d="M101.991 31.0693C109.646 31.0693 115.851 24.1142 115.851 15.5347C115.851 6.95511 109.646 0 101.991 0C94.3355 0 88.1299 6.95511 88.1299 15.5347C88.1299 24.1142 94.3355 31.0693 101.991 31.0693Z" fill="#C0AFFF"/>
<path id="Vector_11" d="M94.8517 55.0774C94.8517 66.6401 84.4174 76.0514 71.4972 76.0514C58.5769 76.0514 48.1429 66.6401 48.1429 55.0774C48.1429 43.5147 58.5769 34.1033 71.4972 34.1033C84.4174 34.1033 94.8517 43.5147 94.8517 55.0774Z" fill="#FFC6C6" stroke="#D58787" stroke-width="0.5"/>
<path id="Vector_12" d="M56.2505 19.7714C57.7815 19.7714 59.0227 18.5068 59.0227 16.9469C59.0227 15.387 57.7815 14.1224 56.2505 14.1224C54.7195 14.1224 53.4784 15.387 53.4784 16.9469C53.4784 18.5068 54.7195 19.7714 56.2505 19.7714Z" fill="white" fill-opacity="0.66"/>
<path id="Vector_13" d="M69.6593 41.9053C69.4025 34.6562 77.1672 28.4809 87.0023 28.1122C96.8374 27.7435 101.269 33.4616 101.526 40.7107C101.783 47.9597 97.7667 53.9945 87.9317 54.3632C78.0969 54.7319 69.916 49.1542 69.6593 41.9053Z" fill="#C0AFFF"/>
<path id="Vector_14" d="M74.3483 38.553C74.5878 45.8059 66.8169 52.1131 56.9916 52.6405C47.1663 53.168 42.7524 47.5148 42.513 40.2618C42.2735 33.0089 46.299 26.9028 56.1243 26.3753C65.9497 25.8479 74.1088 31.3 74.3483 38.553Z" fill="#C0AFFF"/>
<path id="Vector_15" d="M82.5857 45.1917C84.1168 45.1917 85.3579 43.9271 85.3579 42.3672C85.3579 40.8073 84.1168 39.5427 82.5857 39.5427C81.0547 39.5427 79.8136 40.8073 79.8136 42.3672C79.8136 43.9271 81.0547 45.1917 82.5857 45.1917Z" fill="#474747"/>
<path id="Vector_16" d="M59.0226 43.7794C60.5536 43.7794 61.7948 42.5149 61.7948 40.955C61.7948 39.3951 60.5536 38.1305 59.0226 38.1305C57.4916 38.1305 56.2505 39.3951 56.2505 40.955C56.2505 42.5149 57.4916 43.7794 59.0226 43.7794Z" fill="#474747"/>
<path id="Vector_17" d="M68.3827 44.779C68.4565 46.6309 64.7686 48.2988 60.1455 48.5043C55.5224 48.7099 53.4771 47.2969 53.4033 45.445C53.3295 43.5931 55.2551 42.0036 59.8782 41.798C64.5014 41.5924 68.3089 42.927 68.3827 44.779Z" fill="#C0AFFF"/>
<path id="Vector_18" d="M89.5898 47.8664C89.3248 49.7002 85.3968 50.6415 80.8168 49.9689C76.2365 49.2964 74.4842 47.5211 74.7491 45.6875C75.0141 43.8537 77.1959 42.656 81.7761 43.3286C86.3563 44.0011 89.8547 46.0328 89.5898 47.8664Z" fill="#C0AFFF"/>
<path id="Vector_19" d="M54.4913 23.3983C54.0016 22.3946 52.8583 19.1918 51.2601 17.8065C50.934 17.9983 48.3282 19.5308 46.8633 21.6838C44.1909 25.6118 45.3056 30.0057 46.8736 34.5949C46.8702 30.2912 48.6266 25.8137 54.4913 23.3983Z" fill="white" fill-opacity="0.66"/>
</g>
</g>
</g>
</g>
<defs>
<linearGradient id="paint0_linear_484_3805" x1="162.038" y1="100.076" x2="154.208" y2="91.1281" gradientUnits="userSpaceOnUse">
<stop stop-color="#E9E2FF" stop-opacity="0"/>
<stop offset="1" stop-color="#E9E2FF"/>
</linearGradient>
<linearGradient id="paint1_linear_484_3805" x1="152.95" y1="69.3145" x2="150.086" y2="63.586" gradientUnits="userSpaceOnUse">
<stop stop-color="#E9E2FF" stop-opacity="0"/>
<stop offset="1" stop-color="#E9E2FF"/>
</linearGradient>
<clipPath id="clip0_484_3805">
<rect width="173" height="125" fill="white"/>
</clipPath>
</defs>
</svg>
