<svg width="24" height="24" viewBox="0 0 24 24" fill="none" xmlns="http://www.w3.org/2000/svg">
<g id="uil:table">
<path id="Vector" d="M19.2 4H4.8C4.58783 4 4.38434 4.08429 4.23431 4.23431C4.08429 4.38434 4 4.58783 4 4.8V19.2C4 19.4122 4.08429 19.6157 4.23431 19.7657C4.38434 19.9157 4.58783 20 4.8 20H19.2C19.4122 20 19.6157 19.9157 19.7657 19.7657C19.9157 19.6157 20 19.4122 20 19.2V4.8C20 4.58783 19.9157 4.38434 19.7657 4.23431C19.6157 4.08429 19.4122 4 19.2 4ZM8.8 18.4H5.6V15.2H8.8V18.4ZM8.8 13.6H5.6V10.4H8.8V13.6ZM8.8 8.8H5.6V5.6H8.8V8.8ZM13.6 18.4H10.4V15.2H13.6V18.4ZM13.6 13.6H10.4V10.4H13.6V13.6ZM13.6 8.8H10.4V5.6H13.6V8.8ZM18.4 18.4H15.2V15.2H18.4V18.4ZM18.4 13.6H15.2V10.4H18.4V13.6ZM18.4 8.8H15.2V5.6H18.4V8.8Z" fill="#8D8E8D"/>
</g>
</svg>
