<svg width="33" height="32" viewBox="0 0 33 32" fill="none" xmlns="http://www.w3.org/2000/svg">
<g id="Neutral face/Grimacing face/High Contrast">
<g id="Shape">
<path d="M9.5 24.2361C9.31544 24.0709 9.15145 23.8832 9.01235 23.6773C8.68888 23.1985 8.5 22.6213 8.5 22C8.5 21.2488 8.77607 20.5621 9.23229 20.0359C9.78236 19.4013 10.5943 19 11.5 19H21.5C22.4579 19 23.3109 19.4489 23.8601 20.1478C24.2609 20.6579 24.5 21.301 24.5 22C24.5 22.1035 24.4948 22.2059 24.4845 22.3067C24.4301 22.8421 24.235 23.3359 23.9366 23.7505C23.809 23.9279 23.6625 24.0907 23.5 24.2361C22.9692 24.7112 22.2684 25 21.5 25H11.5C10.7316 25 10.0308 24.7112 9.5 24.2361ZM23.2919 21.1107C22.9646 20.4524 22.2851 20 21.5 20H11.5C10.7149 20 10.0354 20.4524 9.70809 21.1107C9.89096 21.3475 10.1777 21.5 10.5 21.5H22.5C22.8223 21.5 23.109 21.3475 23.2919 21.1107ZM21.5 24C22.2851 24 22.9646 23.5476 23.2919 22.8893C23.109 22.6525 22.8223 22.5 22.5 22.5H10.5C10.1777 22.5 9.89097 22.6525 9.7081 22.8893C10.0354 23.5476 10.7149 24 11.5 24H21.5Z" fill="#1C1D1B" fill-opacity="0.5"/>
<path d="M12.5 14C13.6046 14 14.5 13.1046 14.5 12C14.5 10.8954 13.6046 10 12.5 10C11.3954 10 10.5 10.8954 10.5 12C10.5 13.1046 11.3954 14 12.5 14Z" fill="#1C1D1B" fill-opacity="0.5"/>
<path d="M16.5 11.5C16.5 14.5376 14.0376 17 11 17C7.96243 17 5.5 14.5376 5.5 11.5C5.5 8.46243 7.96243 6 11 6C14.0376 6 16.5 8.46243 16.5 11.5ZM15.5 11.5C15.5 9.01472 13.4853 7 11 7C8.51472 7 6.5 9.01472 6.5 11.5C6.5 13.9853 8.51472 16 11 16C13.4853 16 15.5 13.9853 15.5 11.5Z" fill="#1C1D1B" fill-opacity="0.5"/>
<path d="M20.5 14C21.6046 14 22.5 13.1046 22.5 12C22.5 10.8954 21.6046 10 20.5 10C19.3954 10 18.5 10.8954 18.5 12C18.5 13.1046 19.3954 14 20.5 14Z" fill="#1C1D1B" fill-opacity="0.5"/>
<path d="M22 17C18.9624 17 16.5 14.5376 16.5 11.5C16.5 8.46243 18.9624 6 22 6C25.0376 6 27.5 8.46243 27.5 11.5C27.5 14.5376 25.0376 17 22 17ZM26.5 11.5C26.5 9.01472 24.4853 7 22 7C19.5147 7 17.5 9.01472 17.5 11.5C17.5 13.9853 19.5147 16 22 16C24.4853 16 26.5 13.9853 26.5 11.5Z" fill="#1C1D1B" fill-opacity="0.5"/>
<path d="M5.26342 5.42276C7.813 2.65419 11.5952 1 16.4989 1C21.4026 1 25.1848 2.65419 27.7343 5.42276C30.2715 8.17785 31.4978 11.9378 31.4978 15.9989C31.4978 20.06 30.2715 23.8199 27.7343 26.575C25.1848 29.3436 21.4026 30.9978 16.4989 30.9978C11.5952 30.9978 7.813 29.3436 5.26342 26.575C2.72626 23.8199 1.5 20.06 1.5 15.9989C1.5 11.9378 2.72626 8.17785 5.26342 5.42276ZM6.73462 6.77759C4.60595 9.08911 3.5 12.3286 3.5 15.9989C3.5 19.6691 4.60595 22.9087 6.73462 25.2202C8.85088 27.5182 12.0681 28.9978 16.4989 28.9978C20.9296 28.9978 24.1469 27.5182 26.2631 25.2202C28.3918 22.9087 29.4978 19.6691 29.4978 15.9989C29.4978 12.3286 28.3918 9.08911 26.2631 6.77759C24.1469 4.47956 20.9296 3 16.4989 3C12.0681 3 8.85088 4.47956 6.73462 6.77759Z" fill="#1C1D1B" fill-opacity="0.5"/>
</g>
</g>
</svg>
