<svg width="33" height="32" viewBox="0 0 33 32" fill="none" xmlns="http://www.w3.org/2000/svg">
<g id="Slightly smiling face/High Contrast">
<g id="Shape">
<path d="M12.3001 18.4001C11.9687 17.9582 11.3419 17.8687 10.9001 18.2001C10.4582 18.5314 10.3687 19.1582 10.7001 19.6001C11.3907 20.5209 13.3883 22.0001 16.5001 22.0001C19.6118 22.0001 21.6094 20.5209 22.3001 19.6001C22.6314 19.1582 22.5419 18.5314 22.1001 18.2001C21.6582 17.8687 21.0314 17.9582 20.7001 18.4001C20.3907 18.8125 18.9883 20.0001 16.5001 20.0001C14.0118 20.0001 12.6094 18.8125 12.3001 18.4001Z" fill="#1C1D1B" fill-opacity="0.5"/>
<path d="M13.5 12C13.5 13.1046 12.6046 14 11.5 14C10.3954 14 9.5 13.1046 9.5 12C9.5 10.8954 10.3954 10 11.5 10C12.6046 10 13.5 10.8954 13.5 12Z" fill="#1C1D1B" fill-opacity="0.5"/>
<path d="M6.21289 12.0185C6.21289 9.41943 8.31982 7.3125 10.9189 7.3125C13.5179 7.3125 15.6248 9.41943 15.6248 12.0185C15.6248 14.6175 13.5179 16.7244 10.9189 16.7244C8.31982 16.7244 6.21289 14.6175 6.21289 12.0185ZM10.9189 8.3125C8.87211 8.3125 7.21289 9.97172 7.21289 12.0185C7.21289 14.0652 8.87211 15.7244 10.9189 15.7244C12.9656 15.7244 14.6248 14.0652 14.6248 12.0185C14.6248 9.97172 12.9656 8.3125 10.9189 8.3125Z" fill="#1C1D1B" fill-opacity="0.5"/>
<path d="M23.5 12C23.5 13.1046 22.6046 14 21.5 14C20.3954 14 19.5 13.1046 19.5 12C19.5 10.8954 20.3954 10 21.5 10C22.6046 10 23.5 10.8954 23.5 12Z" fill="#1C1D1B" fill-opacity="0.5"/>
<path d="M17.3237 12.0568C17.3237 9.4366 19.4478 7.3125 22.068 7.3125C24.6882 7.3125 26.8123 9.4366 26.8123 12.0568C26.8123 14.677 24.6882 16.8011 22.068 16.8011C19.4478 16.8011 17.3237 14.677 17.3237 12.0568ZM22.068 8.3125C20.0001 8.3125 18.3237 9.98888 18.3237 12.0568C18.3237 14.1247 20.0001 15.8011 22.068 15.8011C24.136 15.8011 25.8123 14.1247 25.8123 12.0568C25.8123 9.98888 24.136 8.3125 22.068 8.3125Z" fill="#1C1D1B" fill-opacity="0.5"/>
<path d="M5.26342 5.42276C7.813 2.65419 11.5952 1 16.4989 1C21.4026 1 25.1848 2.65419 27.7343 5.42276C30.2715 8.17785 31.4978 11.9378 31.4978 15.9989C31.4978 20.06 30.2715 23.8199 27.7343 26.575C25.1848 29.3436 21.4026 30.9978 16.4989 30.9978C11.5952 30.9978 7.813 29.3436 5.26342 26.575C2.72626 23.8199 1.5 20.06 1.5 15.9989C1.5 11.9378 2.72626 8.17785 5.26342 5.42276ZM6.73462 6.77759C4.60595 9.08911 3.5 12.3286 3.5 15.9989C3.5 19.6691 4.60595 22.9087 6.73462 25.2202C8.85088 27.5182 12.0681 28.9978 16.4989 28.9978C20.9296 28.9978 24.1469 27.5182 26.2631 25.2202C28.3918 22.9087 29.4978 19.6691 29.4978 15.9989C29.4978 12.3286 28.3918 9.08911 26.2631 6.77759C24.1469 4.47956 20.9296 3 16.4989 3C12.0681 3 8.85088 4.47956 6.73462 6.77759Z" fill="#1C1D1B" fill-opacity="0.5"/>
</g>
</g>
</svg>
