<svg width="33" height="32" viewBox="0 0 33 32" fill="none" xmlns="http://www.w3.org/2000/svg">
<g id="Tired face/High Contrast">
<g id="Shape">
<path d="M13.5 5.5C13.5 5.22386 13.2761 5 13 5C12.7239 5 12.5 5.22386 12.5 5.5C12.5 6.36432 12.1809 6.97582 11.7303 7.3763C11.2706 7.78495 10.6435 8 10 8C9.72386 8 9.5 8.22386 9.5 8.5C9.5 8.77614 9.72386 9 10 9C10.8565 9 11.7294 8.71505 12.3947 8.1237C13.0691 7.52418 13.5 6.63568 13.5 5.5Z" fill="#F39697"/>
<path d="M20 5C19.7239 5 19.5 5.22386 19.5 5.5C19.5 6.63568 19.9309 7.52418 20.6053 8.1237C21.2706 8.71505 22.1435 9 23 9C23.2761 9 23.5 8.77614 23.5 8.5C23.5 8.22386 23.2761 8 23 8C22.3565 8 21.7294 7.78495 21.2697 7.3763C20.8191 6.97582 20.5 6.36432 20.5 5.5C20.5 5.22386 20.2761 5 20 5Z" fill="#F39697"/>
<path d="M24.0003 24C24.8287 24 25.5131 23.3234 25.3766 22.5063C24.6651 18.2466 20.9617 15 16.5 15C12.0383 15 8.33491 18.2466 7.62339 22.5063C7.4869 23.3234 8.17127 24 8.9997 24H24.0003Z" fill="#F39697"/>
<path d="M8.60555 10.5528C8.85254 10.0588 9.45321 9.85856 9.94719 10.1055L13.9472 12.1055C14.286 12.2749 14.5 12.6212 14.5 13C14.5 13.3787 14.286 13.725 13.9472 13.8944L9.94719 15.8944C9.45321 16.1414 8.85254 15.9412 8.60555 15.4472C8.35856 14.9532 8.55878 14.3525 9.05276 14.1055L11.2639 13L9.05276 11.8944C8.55878 11.6474 8.35856 11.0467 8.60555 10.5528Z" fill="#F39697"/>
<path d="M23.0528 10.1055C23.5468 9.85856 24.1475 10.0588 24.3945 10.5528C24.6414 11.0467 24.4412 11.6474 23.9472 11.8944L21.7361 13L23.9472 14.1055C24.4412 14.3525 24.6414 14.9532 24.3945 15.4472C24.1475 15.9412 23.5468 16.1414 23.0528 15.8944L19.0528 13.8944C18.714 13.725 18.5 13.3787 18.5 13C18.5 12.6212 18.714 12.2749 19.0528 12.1055L23.0528 10.1055Z" fill="#F39697"/>
<path d="M16.4989 1C11.5952 1 7.813 2.65419 5.26342 5.42276C2.72626 8.17785 1.5 11.9378 1.5 15.9989C1.5 20.06 2.72626 23.8199 5.26342 26.575C7.813 29.3436 11.5952 30.9978 16.4989 30.9978C21.4026 30.9978 25.1848 29.3436 27.7343 26.575C30.2715 23.8199 31.4978 20.06 31.4978 15.9989C31.4978 11.9378 30.2715 8.17785 27.7343 5.42276C25.1848 2.65419 21.4026 1 16.4989 1ZM3.5 15.9989C3.5 12.3286 4.60595 9.08911 6.73462 6.77759C8.85088 4.47956 12.0681 3 16.4989 3C20.9296 3 24.1469 4.47956 26.2631 6.77759C28.3918 9.08911 29.4978 12.3286 29.4978 15.9989C29.4978 19.6691 28.3918 22.9087 26.2631 25.2202C24.1469 27.5182 20.9296 28.9978 16.4989 28.9978C12.0681 28.9978 8.85088 27.5182 6.73462 25.2202C4.60595 22.9087 3.5 19.6691 3.5 15.9989Z" fill="#F39697"/>
</g>
</g>
</svg>
