<svg width="24" height="24" viewBox="0 0 24 24" fill="none" xmlns="http://www.w3.org/2000/svg">
<g id="octicon:goal-16">
<g id="Vector">
<path d="M17.9637 6.03563L19.7357 6.38983C19.8309 6.40886 19.9091 6.47864 19.9366 6.57274C19.9505 6.61845 19.9517 6.66707 19.9402 6.71343C19.9286 6.75979 19.9048 6.80215 19.8711 6.83601L18.4194 8.28876C18.2454 8.46174 18.0102 8.55902 17.7649 8.55944H16.5606L13.5367 11.5844C13.5944 11.8022 13.605 12.0299 13.5678 12.2521C13.5306 12.4744 13.4465 12.6861 13.3211 12.8733C13.1956 13.0605 13.0317 13.2188 12.8403 13.3377C12.6489 13.4566 12.4343 13.5333 12.2109 13.5628C11.9875 13.5923 11.7604 13.5738 11.5447 13.5086C11.329 13.4434 11.1297 13.333 10.96 13.1847C10.7903 13.0364 10.6542 12.8537 10.5606 12.6487C10.4671 12.4436 10.4184 12.221 10.4176 11.9957C10.4176 11.7523 10.4735 11.5122 10.5812 11.2939C10.6888 11.0757 10.8452 10.8851 11.0383 10.737C11.2314 10.5889 11.456 10.4872 11.6947 10.4398C11.9334 10.3924 12.1798 10.4005 12.4149 10.4637L15.4399 7.43763V6.23546C15.4399 5.99016 15.5371 5.75438 15.7105 5.58098L17.1633 4.12823C17.1971 4.09453 17.2395 4.07064 17.2859 4.0591C17.3322 4.04756 17.3808 4.04879 17.4266 4.06268C17.5207 4.09017 17.5904 4.16841 17.6095 4.26357L17.9637 6.03563Z" fill="#8D8E8D"/>
<path d="M5.65971 11.9957C5.66079 12.9028 5.85641 13.7992 6.23337 14.6243C6.61033 15.4494 7.15986 16.1841 7.84488 16.7787C8.52991 17.3734 9.33451 17.8142 10.2044 18.0715C11.0743 18.3288 11.9892 18.3965 12.8875 18.2701C13.7858 18.1437 14.6465 17.8261 15.4116 17.3388C16.1768 16.8515 16.8285 16.2057 17.3228 15.4451C17.8171 14.6845 18.1426 13.8267 18.2772 12.9296C18.4118 12.0325 18.3525 11.117 18.1032 10.2448C18.0682 10.1429 18.0543 10.0349 18.0624 9.92749C18.0704 9.82005 18.1003 9.71537 18.1501 9.61983C18.1999 9.52429 18.2686 9.43988 18.3521 9.37174C18.4355 9.30361 18.532 9.25317 18.6356 9.22351C18.7392 9.19384 18.8477 9.18557 18.9546 9.19918C19.0615 9.2128 19.1644 9.24803 19.2573 9.30272C19.3501 9.35741 19.4308 9.43043 19.4945 9.51731C19.5583 9.6042 19.6036 9.70315 19.6279 9.80812C20.1106 11.4972 20.0189 13.2987 19.3672 14.9301C18.7155 16.5615 17.5407 17.9303 16.0271 18.8219C14.5135 19.7136 12.7467 20.0775 11.004 19.8566C9.26119 19.6358 7.64105 18.8426 6.39771 17.6016C5.15573 16.3586 4.36172 14.7383 4.14035 12.9951C3.91898 11.2519 4.28278 9.4846 5.17463 7.97059C6.06649 6.45658 7.43589 5.28162 9.06785 4.63018C10.6998 3.97875 12.5019 3.88773 14.1912 4.37141C14.3923 4.43021 14.562 4.56624 14.6632 4.74978C14.7643 4.93331 14.7887 5.14942 14.731 5.35089C14.6733 5.55235 14.5382 5.72278 14.3552 5.82494C14.1723 5.92709 13.9563 5.95266 13.7545 5.89606C12.8099 5.62481 11.8151 5.57674 10.8487 5.75565C9.88235 5.93456 8.97075 6.33556 8.18583 6.92702C7.40092 7.51847 6.76415 8.28421 6.32577 9.16383C5.88738 10.0434 5.65937 11.0129 5.65971 11.9957Z" fill="#8D8E8D"/>
<path d="M8.83165 11.9957C8.83171 12.5736 8.98956 13.1406 9.28816 13.6354C9.58676 14.1302 10.0148 14.534 10.5261 14.8034C11.0373 15.0728 11.6125 15.1975 12.1894 15.1641C12.7664 15.1306 13.3232 14.9403 13.8 14.6136C14.2766 14.2861 14.6546 13.8345 14.8932 13.3077C15.1317 12.7809 15.2217 12.1988 15.1533 11.6246C15.1348 11.4852 15.1538 11.3435 15.2084 11.2139C15.2629 11.0843 15.3509 10.9716 15.4635 10.8874C15.576 10.8032 15.709 10.7505 15.8487 10.7347C15.9884 10.719 16.1297 10.7407 16.2582 10.7978C16.3867 10.8541 16.4979 10.9434 16.5806 11.0567C16.6632 11.17 16.7143 11.3032 16.7287 11.4427C16.8436 12.424 16.6502 13.4167 16.1752 14.2831C15.7003 15.1495 14.9675 15.8465 14.0784 16.2774C13.1893 16.7084 12.1882 16.8519 11.2139 16.688C10.2396 16.5241 9.34044 16.061 8.64129 15.3629C7.94214 14.6648 7.47765 13.7664 7.31229 12.7923C7.14693 11.8183 7.2889 10.8169 7.71849 9.92718C8.14809 9.03747 8.844 8.30356 9.70963 7.82731C10.5753 7.35107 11.5677 7.15612 12.5492 7.26951C12.6543 7.27926 12.7563 7.30989 12.8494 7.35961C12.9425 7.40933 13.0248 7.47713 13.0913 7.55904C13.1579 7.64095 13.2074 7.73533 13.237 7.83663C13.2666 7.93794 13.2757 8.04413 13.2638 8.149C13.2518 8.25386 13.219 8.35528 13.1674 8.44731C13.1157 8.53934 13.0462 8.62013 12.9629 8.68495C12.8796 8.74976 12.7842 8.7973 12.6823 8.82477C12.5804 8.85223 12.474 8.85908 12.3694 8.84491C11.925 8.79331 11.4747 8.83631 11.048 8.9711C10.6214 9.10589 10.2281 9.32941 9.89398 9.62698C9.55986 9.92455 9.29248 10.2894 9.10939 10.6977C8.9263 11.1059 8.83164 11.5483 8.83165 11.9957Z" fill="#8D8E8D"/>
</g>
</g>
</svg>
