<svg width="24" height="24" viewBox="0 0 24 24" fill="none" xmlns="http://www.w3.org/2000/svg">
<g id="lucide:user-round">
<g id="Vector">
<path fill-rule="evenodd" clip-rule="evenodd" d="M12.0004 5.77901C10.3098 5.77901 8.93932 7.14952 8.93932 8.84014C8.93932 10.5307 10.3098 11.9013 12.0004 11.9013C13.6911 11.9013 15.0616 10.5307 15.0616 8.84014C15.0616 7.14952 13.6911 5.77901 12.0004 5.77901ZM7.16189 8.84014C7.16189 6.16788 9.32819 4.00159 12.0004 4.00159C14.6727 4.00159 16.839 6.16788 16.839 8.84014C16.839 11.5124 14.6727 13.6787 12.0004 13.6787C9.32819 13.6787 7.16189 11.5124 7.16189 8.84014Z" fill="#8D8E8D"/>
<path fill-rule="evenodd" clip-rule="evenodd" d="M6.9033 14.0126C8.25515 12.6607 10.0886 11.9013 12.0004 11.9013C13.9122 11.9013 15.7457 12.6607 17.0976 14.0126C18.4494 15.3644 19.2089 17.1979 19.2089 19.1097C19.2089 19.6005 18.811 19.9984 18.3202 19.9984C17.8294 19.9984 17.4315 19.6005 17.4315 19.1097C17.4315 17.6693 16.8593 16.2879 15.8408 15.2694C14.8222 14.2509 13.4408 13.6787 12.0004 13.6787C10.56 13.6787 9.17864 14.2509 8.16013 15.2694C7.14161 16.2879 6.56942 17.6693 6.56942 19.1097C6.56942 19.6005 6.17153 19.9984 5.68071 19.9984C5.18988 19.9984 4.79199 19.6005 4.79199 19.1097C4.79199 17.1979 5.55145 15.3644 6.9033 14.0126Z" fill="#8D8E8D"/>
</g>
</g>
</svg>
