<svg width="32" height="32" viewBox="0 0 32 32" fill="none" xmlns="http://www.w3.org/2000/svg">
<g id="Phone android">
<rect width="32" height="32" rx="16" fill="#C9E1B5"/>
<path id="Vector" d="M14.6938 22.9665H17.3062C17.4223 22.9665 17.5239 22.9229 17.611 22.8358C17.6981 22.7488 17.7416 22.6472 17.7416 22.5311C17.7416 22.415 17.6981 22.3134 17.611 22.2263C17.5239 22.1392 17.4223 22.0956 17.3062 22.0956H14.6938C14.5776 22.0956 14.476 22.1392 14.389 22.2263C14.3019 22.3134 14.2583 22.415 14.2583 22.5311C14.2583 22.6472 14.3019 22.7488 14.389 22.8358C14.476 22.9229 14.5776 22.9665 14.6938 22.9665ZM11.6459 25.579C11.1669 25.579 10.757 25.4086 10.4163 25.0678C10.0749 24.7264 9.90421 24.3163 9.90421 23.8373V8.16243C9.90421 7.68347 10.0749 7.27332 10.4163 6.93195C10.757 6.59117 11.1669 6.42078 11.6459 6.42078H20.3541C20.8331 6.42078 21.2432 6.59117 21.5846 6.93195C21.9254 7.27332 22.0958 7.68347 22.0958 8.16243V23.8373C22.0958 24.3163 21.9254 24.7264 21.5846 25.0678C21.2432 25.4086 20.8331 25.579 20.3541 25.579H11.6459ZM11.6459 19.4832H20.3541V10.7749H11.6459V19.4832Z" fill="#1C1D1B"/>
</g>
</svg>
