<svg width="202" height="36" viewBox="0 0 202 36" fill="none" xmlns="http://www.w3.org/2000/svg">
<g id="Union">
<mask id="path-1-inside-1_92_275" fill="white">
<path fill-rule="evenodd" clip-rule="evenodd" d="M8 0C3.58172 0 0 3.58173 0 8.00001V22.941C0 27.3593 3.58172 30.941 8 30.941H96.3636L98.779 35.0208C99.5535 36.3289 101.447 36.3289 102.221 35.0208L104.636 30.941H194C198.418 30.941 202 27.3593 202 22.941V8C202 3.58172 198.418 0 194 0H8Z"/>
</mask>
<path fill-rule="evenodd" clip-rule="evenodd" d="M8 0C3.58172 0 0 3.58173 0 8.00001V22.941C0 27.3593 3.58172 30.941 8 30.941H96.3636L98.779 35.0208C99.5535 36.3289 101.447 36.3289 102.221 35.0208L104.636 30.941H194C198.418 30.941 202 27.3593 202 22.941V8C202 3.58172 198.418 0 194 0H8Z" fill="#FFFEFB"/>
<path d="M96.3636 30.941L96.4497 30.8901L96.4206 30.841H96.3636V30.941ZM98.779 35.0208L98.8651 34.9698L98.779 35.0208ZM102.221 35.0208L102.135 34.9698L102.221 35.0208ZM104.636 30.941V30.841H104.579L104.55 30.8901L104.636 30.941ZM0.1 8.00001C0.1 3.63696 3.63695 0.1 8 0.1V-0.1C3.52649 -0.1 -0.1 3.5265 -0.1 8.00001H0.1ZM0.1 22.941V8.00001H-0.1V22.941H0.1ZM8 30.841C3.63695 30.841 0.1 27.3041 0.1 22.941H-0.1C-0.1 27.4145 3.52649 31.041 8 31.041V30.841ZM96.3636 30.841H8V31.041H96.3636V30.841ZM98.8651 34.9698L96.4497 30.8901L96.2776 30.992L98.6929 35.0717L98.8651 34.9698ZM102.135 34.9698C101.399 36.2126 99.6008 36.2126 98.8651 34.9698L98.6929 35.0717C99.5061 36.4453 101.494 36.4453 102.307 35.0717L102.135 34.9698ZM104.55 30.8901L102.135 34.9698L102.307 35.0717L104.722 30.992L104.55 30.8901ZM194 30.841H104.636V31.041H194V30.841ZM201.9 22.941C201.9 27.304 198.363 30.841 194 30.841V31.041C198.473 31.041 202.1 27.4145 202.1 22.941H201.9ZM201.9 8V22.941H202.1V8H201.9ZM194 0.1C198.363 0.1 201.9 3.63695 201.9 8H202.1C202.1 3.52649 198.473 -0.1 194 -0.1V0.1ZM8 0.1H194V-0.1H8V0.1Z" fill="#1C1D1B" fill-opacity="0.5" mask="url(#path-1-inside-1_92_275)"/>
</g>
</svg>
